<?xml version="1.0" encoding="utf-8"?>
<!-- Generator: Adobe Illustrator 18.1.1, SVG Export Plug-In . SVG Version: 6.00 Build 0)  -->
<!DOCTYPE svg PUBLIC "-//W3C//DTD SVG 1.1//EN" "http://www.w3.org/Graphics/SVG/1.1/DTD/svg11.dtd">
<svg width="100px" height="48px" version="1.1" id="Layer_1" xmlns="http://www.w3.org/2000/svg" xmlns:xlink="http://www.w3.org/1999/xlink" x="0px" y="0px"
	 viewBox="-909 517 100 48" enable-background="new -909 517 100 48" xml:space="preserve">
<title>diners-club-logo</title>
<desc>Created with Sketch.</desc>
<g>
	<g>
		<path fill="#231F20" d="M-1233.4,836.4c0,1,0.7,1.2,1.4,1.2c2.9,0,3.9-2.2,3.9-4.2c0-2.5-1.6-4.4-4.2-4.4c-0.6,0-0.8,0-1.1,0.1
			V836.4L-1233.4,836.4z M-1234.8,830c0-1.2-0.6-1.1-1.2-1.2v-0.4c0.5,0,1.1,0,1.6,0c0.6,0,1.3,0,2.3,0c3.5,0,5.4,2.3,5.4,4.7
			c0,1.3-0.8,4.7-5.6,4.7c-0.7,0-1.3,0-2,0c-0.6,0-1.2,0-1.8,0v-0.4c0.8-0.1,1.2-0.1,1.2-1L-1234.8,830L-1234.8,830z"/>
		<path fill="#231F20" d="M-1224.7,829.7c-0.4,0-0.7-0.3-0.7-0.7c0-0.3,0.3-0.7,0.7-0.7c0.4,0,0.7,0.3,0.7,0.7
			C-1224.1,829.4-1224.4,829.7-1224.7,829.7 M-1226.2,837.7h0.3c0.4,0,0.7,0,0.7-0.4v-3.7c0-0.6-0.2-0.7-0.7-0.9v-0.2
			c0.6-0.2,1.4-0.4,1.5-0.5s0.2-0.1,0.2-0.1c0.1,0,0.1,0.1,0.1,0.2v5.2c0,0.4,0.3,0.4,0.7,0.4h0.2v0.4c-0.5,0-0.9,0-1.4,0
			s-1,0-1.5,0L-1226.2,837.7L-1226.2,837.7z"/>
		<path fill="#231F20" d="M-1222,833.6c0-0.5-0.2-0.6-0.8-0.9v-0.3c0.6-0.2,1.1-0.4,1.8-0.7c0,0,0.1,0,0.1,0.1v0.9
			c0.8-0.6,1.4-1,2.3-1c1.2,0,1.6,0.8,1.6,1.9v3.5c0,0.4,0.3,0.4,0.7,0.4h0.2v0.4c-0.5,0-1,0-1.4,0c-0.5,0-1,0-1.5,0v-0.4h0.2
			c0.4,0,0.6,0,0.6-0.4v-3.5c0-0.8-0.5-1.2-1.2-1.2c-0.4,0-1.1,0.4-1.6,0.7v4c0,0.4,0.3,0.4,0.7,0.4h0.2v0.4c-0.5,0-0.9,0-1.4,0
			s-1,0-1.5,0v-0.4h0.2c0.4,0,0.7,0,0.7-0.4L-1222,833.6L-1222,833.6z"/>
		<path fill="#231F20" d="M-1212.6,833.8c0.3,0,0.4-0.2,0.4-0.3c0-0.7-0.4-1.2-1.2-1.2c-0.8,0-1.4,0.6-1.6,1.6h2.4V833.8z
			 M-1215,834.3c0,0.1,0,0.3,0,0.8c0.1,1.3,0.9,2.3,2,2.3c0.7,0,1.3-0.4,1.8-0.9l0.2,0.2c-0.6,0.8-1.4,1.5-2.5,1.5
			c-2.2,0-2.6-2.1-2.6-3c0-2.7,1.8-3.4,2.7-3.4c1.1,0,2.3,0.7,2.3,2.1c0,0.1,0,0.2,0,0.2l-0.1,0.1L-1215,834.3L-1215,834.3z"/>
		<path fill="#231F20" d="M-1210.8,837.7h0.4c0.4,0,0.6,0,0.6-0.4v-3.8c0-0.4-0.5-0.5-0.7-0.6v-0.2c1-0.4,1.5-0.8,1.7-0.8
			c0.1,0,0.1,0,0.1,0.2v1.2l0,0c0.3-0.5,0.9-1.4,1.7-1.4c0.3,0,0.8,0.2,0.8,0.7c0,0.4-0.3,0.7-0.6,0.7c-0.4,0-0.4-0.3-0.9-0.3
			c-0.2,0-1,0.3-1,1.1v3.2c0,0.4,0.3,0.4,0.7,0.4h0.8v0.4c-0.7,0-1.3,0-1.9,0s-1.1,0-1.6,0v-0.4H-1210.8z"/>
		<path fill="#231F20" d="M-1205.6,836.1c0.2,0.9,0.7,1.7,1.7,1.7c0.8,0,1.1-0.5,1.1-1c0-1.6-3-1.1-3-3.3c0-0.8,0.6-1.7,2.1-1.7
			c0.4,0,1,0.1,1.5,0.4l0.1,1.4h-0.3c-0.1-0.9-0.6-1.3-1.5-1.3c-0.5,0-1.1,0.3-1.1,0.9c0,1.6,3.1,1.1,3.1,3.2c0,0.9-0.7,1.8-2.3,1.8
			c-0.5,0-1.2-0.2-1.7-0.5l-0.2-1.6H-1205.6z"/>
		<path fill="#231F20" d="M-1189.4,831h-0.3c-0.3-1.6-1.4-2.2-2.9-2.2c-1.6,0-3.8,1-3.8,4.3c0,2.7,2,4.7,4,4.7
			c1.3,0,2.5-0.9,2.7-2.3l0.3,0.1l-0.3,2c-0.6,0.4-2.1,0.7-3,0.7c-3.2,0-5.2-2-5.2-5.1c0-2.8,2.5-4.8,5.1-4.8c1.1,0,2.2,0.4,3.2,0.7
			L-1189.4,831z"/>
		<path fill="#231F20" d="M-1188.9,837.7h0.3c0.4,0,0.7,0,0.7-0.4v-7.6c0-0.9-0.2-0.9-0.7-1.1v-0.2c0.5-0.2,1.1-0.4,1.4-0.6
			c0.1-0.1,0.3-0.1,0.3-0.1c0.1,0,0.1,0.1,0.1,0.2v9.4c0,0.4,0.3,0.4,0.7,0.4h0.2v0.4c-0.5,0-0.9,0-1.4,0s-1,0-1.5,0L-1188.9,837.7
			L-1188.9,837.7z"/>
		<path fill="#231F20" d="M-1180.2,837.3c0,0.2,0.1,0.3,0.4,0.3c0.2,0,0.4,0,0.5,0v0.3c-0.6,0.1-1.7,0.3-2,0.4h-0.1v-1.1
			c-0.8,0.7-1.4,1.1-2.4,1.1c-0.7,0-1.5-0.5-1.5-1.6v-3.5c0-0.4-0.1-0.7-0.8-0.8v-0.3c0.5,0,1.6-0.1,1.7-0.1c0.2,0,0.2,0.1,0.2,0.4
			v3.5c0,0.4,0,1.6,1.2,1.6c0.5,0,1.1-0.4,1.6-0.8V833c0-0.3-0.7-0.4-1.1-0.6v-0.2c1.2-0.1,2-0.2,2.1-0.2c0.1,0,0.1,0.1,0.1,0.2
			L-1180.2,837.3L-1180.2,837.3z"/>
		<path fill="#231F20" d="M-1177.5,836.5c0,0.5,0.5,1.4,1.4,1.4c1.5,0,2.1-1.4,2.1-2.6c0-1.5-1.1-2.7-2.2-2.7
			c-0.5,0-0.9,0.3-1.3,0.6V836.5z M-1177.5,832.8c0.5-0.5,1.3-1,2-1c1.6,0,2.5,1.4,2.5,2.8c0,1.8-1.3,3.6-3.2,3.6
			c-1,0-1.5-0.3-1.9-0.5l-0.4,0.3l-0.3-0.1c0.1-0.8,0.2-1.6,0.2-2.4v-5.8c0-0.9-0.2-0.9-0.7-1.1v-0.2c0.5-0.2,1.1-0.4,1.4-0.6
			c0.1-0.1,0.3-0.1,0.3-0.1c0.1,0,0.1,0.1,0.1,0.2V832.8z"/>
		<path fill="#231F20" d="M-1236,845.9L-1236,845.9c0.4,0,0.6,0,0.6-0.4v-3.9c0-0.4-0.3-0.4-0.5-0.4h-0.1V841c0.3,0,0.7,0,1.1,0
			s0.8,0,1.2,0v0.2h-0.1c-0.3,0-0.5,0-0.5,0.4v3.9c0,0.4,0.3,0.4,0.5,0.4h0.1v0.2c-0.4,0-0.8,0-1.2,0s-0.8,0-1.1,0V845.9z"/>
		<path fill="#231F20" d="M-1233.8,846.1v-0.2h-0.1c-0.3,0-0.6,0-0.6-0.5v-3.9c0-0.4,0.3-0.5,0.6-0.5h0.1l0,0c-0.3,0-0.8,0-1.1,0
			c-0.4,0-0.8,0-1.1,0v0.2h0.1c0.3,0,0.6,0,0.6,0.5v3.9c0,0.4-0.3,0.5-0.6,0.5h-0.1v0.2c0.3,0,0.7,0,1.1,0
			C-1234.6,846.1-1234.2,846.1-1233.8,846.1 M-1233.8,846.1c-0.4,0-0.8,0-1.2,0s-0.8,0-1.1,0l0,0l0,0v-0.2l0,0l0,0h0.1
			c0.3,0,0.5,0,0.5-0.4v-3.9c0-0.4-0.2-0.4-0.5-0.4h-0.1l0,0v-0.3l0,0c0.3,0,0.7,0,1.1,0s0.8,0,1.2,0l0,0l0,0v0.3l0,0h-0.1
			c-0.3,0-0.5,0-0.5,0.4v3.9c0,0.4,0.2,0.4,0.5,0.4h0.1l0,0V846.1L-1233.8,846.1z"/>
		<path fill="#231F20" d="M-1228.7,844.7L-1228.7,844.7v-2.8c0-0.6-0.4-0.7-0.6-0.7h-0.2V841c0.3,0,0.7,0,1,0c0.3,0,0.6,0,0.9,0v0.2
			h-0.1c-0.3,0-0.7,0.1-0.7,0.9v3.4c0,0.3,0,0.5,0,0.7h-0.3l-3.8-4.2v3c0,0.6,0.1,0.9,0.7,0.9h0.1v0.2c-0.3,0-0.6,0-1,0
			c-0.3,0-0.7,0-1,0v-0.2h0.1c0.5,0,0.7-0.3,0.7-0.9v-3.1c0-0.4-0.3-0.7-0.7-0.7h-0.1V841c0.3,0,0.6,0,0.8,0c0.2,0,0.4,0,0.7,0
			L-1228.7,844.7z"/>
		<path fill="#231F20" d="M-1228.7,844.6L-1228.7,844.6L-1228.7,844.6L-1228.7,844.6z M-1228.7,844.7L-1228.7,844.7L-1228.7,844.7z
			 M-1228.6,846.2h0.2c0-0.2,0-0.5,0-0.7v-3.4c0-0.9,0.4-1,0.7-1h0.1V841c-0.3,0-0.6,0-0.9,0c-0.3,0-0.7,0-1,0v0.2h0.1
			c0.2,0,0.7,0.1,0.7,0.7v2.8l0,0l0,0l-3.3-3.7c-0.2,0-0.4,0-0.7,0s-0.5,0-0.8,0v0.2h0.1c0.3,0,0.7,0.3,0.7,0.7v3.1
			c0,0.6-0.2,1-0.7,1h-0.1v0.2c0.3,0,0.6,0,1,0c0.3,0,0.6,0,0.9,0V846h-0.1c-0.6,0-0.7-0.3-0.7-0.9V842L-1228.6,846.2z
			 M-1228.3,846.3h-0.3l-3.7-4.2v3c0,0.6,0.1,0.8,0.7,0.8h0.2l0,0v0.3l0,0c-0.3,0-0.6,0-1,0c-0.3,0-0.7,0-1,0l0,0l0,0v-0.3l0,0h0.1
			c0.5,0,0.6-0.3,0.6-0.9v-3.1c0-0.4-0.3-0.6-0.6-0.6h-0.1l0,0V841l0,0c0.3,0,0.6,0,0.8,0c0.2,0,0.4,0,0.7,0l3.2,3.7V842
			c0-0.6-0.4-0.7-0.6-0.7h-0.2l0,0V841l0,0c0.3,0,0.7,0,1,0c0.3,0,0.6,0,0.9,0l0,0l0,0v0.3l0,0h-0.1c-0.3,0-0.6,0-0.6,0.9v3.4
			C-1228.3,845.7-1228.3,846-1228.3,846.3L-1228.3,846.3L-1228.3,846.3z"/>
		<path fill="#231F20" d="M-1226.5,841.3c-0.6,0-0.6,0.1-0.7,0.7h-0.2c0-0.2,0.1-0.4,0.1-0.6c0-0.2,0-0.4,0-0.6h0.2
			c0.1,0.2,0.2,0.2,0.4,0.2h3.8c0.2,0,0.4,0,0.4-0.2h0.2c0,0.2-0.1,0.4-0.1,0.6c0,0.2,0,0.4,0,0.6l-0.2,0.1c0-0.3-0.1-0.7-0.5-0.7
			h-1.2v3.9c0,0.6,0.3,0.6,0.6,0.6h0.1v0.2c-0.3,0-0.8,0-1.2,0s-1,0-1.2,0v-0.2h0.1c0.4,0,0.6,0,0.6-0.6v-3.9h-1.2V841.3z"/>
		<path fill="#231F20" d="M-1223.5,846.1c-0.3,0-0.8,0-1.2,0c-0.4,0-1,0-1.2,0l0,0l0,0v-0.3l0,0h0.1c0.4,0,0.6,0,0.6-0.6v-3.9h-1.2
			l0,0l0,0h1.2v4c0,0.6-0.2,0.7-0.6,0.7h-0.1v0.2c0.3,0,0.8,0,1.2,0C-1224.4,846.1-1223.9,846.1-1223.5,846.1v-0.2h-0.1
			c-0.4,0-0.6-0.1-0.6-0.7v-4h1.2c0.5,0,0.6,0.4,0.6,0.7l0.2-0.1c0-0.2,0-0.4,0-0.6c0-0.2,0-0.4,0.1-0.6h-0.1c0,0.2-0.2,0.2-0.4,0.2
			h-3.8l0,0c-0.2,0-0.4,0-0.4-0.2h-0.1c0,0.2,0,0.4,0,0.6c0,0.2-0.1,0.4-0.1,0.6h0.2c0.1-0.5,0.2-0.7,0.7-0.7l0,0l0,0
			c-0.5,0-0.5,0.1-0.7,0.6l0,0l0,0h-0.3l0,0c0-0.2,0.1-0.4,0.1-0.6s0-0.4,0-0.6l0,0l0,0h0.2l0,0c0,0.2,0.2,0.2,0.4,0.2l0,0h3.8
			c0.2,0,0.4,0,0.4-0.2l0,0l0,0h0.2l0,0c0,0.2-0.1,0.4-0.1,0.6s0,0.4,0,0.6l0,0l0,0l-0.3,0.1l0,0c0-0.3,0-0.7-0.5-0.7h-1.2v3.9
			c0,0.6,0.2,0.6,0.6,0.6h0.2l0,0L-1223.5,846.1L-1223.5,846.1z"/>
		<path fill="#231F20" d="M-1222,845.9L-1222,845.9c0.4,0,0.6,0,0.6-0.4v-3.9c0-0.4-0.3-0.4-0.5-0.4h-0.1V841c0.4,0,1.2,0,1.8,0
			c0.6,0,1.4,0,1.9,0c0,0.3,0,0.8,0,1.1l-0.2,0.1c0-0.5-0.1-0.9-0.9-0.9h-1v1.9h0.9c0.4,0,0.5-0.2,0.6-0.6h0.2c0,0.3,0,0.6,0,0.9
			s0,0.6,0,0.8h-0.2c0-0.4-0.1-0.7-0.6-0.7h-0.9v1.7c0,0.5,0.4,0.5,0.9,0.5c0.9,0,1.3-0.1,1.5-0.9l0.2,0.1c-0.1,0.4-0.2,0.8-0.2,1.2
			c-0.5,0-1.3,0-2,0c-0.7,0-1.5,0-2,0V845.9L-1222,845.9z"/>
		<path fill="#231F20" d="M-1218.1,846.1c0.1-0.4,0.1-0.7,0.2-1.1h-0.1c-0.2,0.8-0.6,0.9-1.5,0.9c-0.5,0-0.9,0-0.9-0.5v-1.8h0.9
			c0.5,0,0.6,0.3,0.6,0.7h0.2c0-0.3,0-0.5,0-0.8c0-0.3,0-0.6,0-0.8h-0.2c0,0.4-0.2,0.7-0.6,0.6h-0.9v-2h1.1c0.8,0,0.9,0.4,0.9,0.9
			h0.2c0-0.2,0-0.5,0-0.7c0-0.1,0-0.2,0-0.4c-0.5,0-1.2,0-1.9,0c-0.6,0-1.4,0-1.8,0v0.2h0.1c0.3,0,0.6,0,0.6,0.5v3.9
			c0,0.4-0.3,0.5-0.6,0.5h-0.1v0.2c0.4,0,1.3,0,1.9,0C-1219.4,846.1-1218.5,846.1-1218.1,846.1 M-1218,846.1c-0.5,0-1.3,0-2,0
			s-1.5,0-2,0l0,0l0,0v-0.2l0,0l0,0h0.1c0.3,0,0.5,0,0.5-0.4v-3.9c0-0.4-0.2-0.4-0.5-0.4h-0.1l0,0v-0.3l0,0c0.5,0,1.2,0,1.8,0
			c0.6,0,1.4,0,1.9,0l0,0l0,0c0,0.1,0,0.2,0,0.4c0,0.3,0,0.5,0,0.7l0,0l0,0l-0.3,0.1l0,0c0-0.5-0.1-0.8-0.9-0.8h-1v1.9h0.8
			c0.4,0,0.5-0.2,0.6-0.6l0,0l0,0h0.3l0,0c0,0.3,0,0.6,0,0.9c0,0.3,0,0.6,0,0.8l0,0l0,0l-0.3,0.1l0,0c-0.1-0.5-0.1-0.7-0.5-0.7h-0.9
			v1.7c0,0.4,0.4,0.4,0.9,0.4c0.9,0,1.2,0,1.5-0.9l0,0l0,0l0.2,0.1l0,0C-1217.9,845.3-1217.9,845.7-1218,846.1L-1218,846.1
			L-1218,846.1z"/>
		<path fill="#231F20" d="M-1215.9,843.5h0.4c0.7,0,1.1-0.3,1.1-1.2c0-0.7-0.4-1.1-1.1-1.1c-0.2,0-0.3,0-0.4,0V843.5z
			 M-1216.8,841.7c0-0.5-0.3-0.6-0.5-0.6h-0.1V841c0.2,0,0.7,0,1.1,0c0.4,0,0.8,0,1.2,0c0.9,0,1.8,0.3,1.8,1.3c0,0.7-0.4,1.1-1,1.3
			l1.3,1.9c0.2,0.3,0.4,0.4,0.7,0.4v0.2c-0.2,0-0.5,0-0.7,0s-0.5,0-0.7,0c-0.6-0.7-1.1-1.5-1.5-2.4h-0.5v1.6c0,0.6,0.3,0.6,0.6,0.6
			h0.1v0.2c-0.4,0-0.8,0-1.3,0c-0.4,0-0.7,0-1.1,0v-0.2h0.1c0.3,0,0.5-0.1,0.5-0.4V841.7z"/>
		<path fill="#231F20" d="M-1215.5,843.4c0.7,0,1.1-0.3,1.1-1.1c0-0.6-0.4-1-1-1c-0.2,0-0.3,0-0.4,0v2.1H-1215.5z M-1215.9,843.5
			L-1215.9,843.5v-2.3l0,0c0.1,0,0.2,0,0.4,0c0.7,0,1.1,0.4,1.1,1.1c0,0.9-0.4,1.2-1.2,1.2H-1215.9L-1215.9,843.5z M-1215.9,843.7
			h0.5l0,0c0.5,0.8,1,1.6,1.5,2.4c0.2,0,0.5,0,0.7,0c0.2,0,0.5,0,0.7,0v-0.2c-0.3,0-0.5-0.1-0.7-0.5l-1.3-1.9l0,0
			c0.6-0.2,1-0.6,1-1.3c0-1-0.8-1.3-1.7-1.3c-0.4,0-0.7,0-1.2,0c-0.4,0-0.9,0-1.1,0v0.2h0.1c0.2,0,0.6,0,0.6,0.6v3.7
			c0,0.3-0.3,0.4-0.6,0.4h-0.1v0.2c0.4,0,0.7,0,1,0c0.4,0,0.8,0,1.2,0v-0.2h-0.1c-0.3,0-0.6,0-0.6-0.6L-1215.9,843.7L-1215.9,843.7z
			 M-1212.4,846.1c-0.2,0-0.5,0-0.7,0c-0.2,0-0.5,0-0.7,0c-0.6-0.7-1.1-1.5-1.5-2.4h-0.4v1.5c0,0.6,0.2,0.6,0.6,0.6h0.2l0,0v0.3l0,0
			c-0.4,0-0.9,0-1.3,0c-0.4,0-0.7,0-1.1,0l0,0l0,0v-0.3l0,0h0.1c0.3,0,0.5-0.1,0.5-0.4v-3.7c0-0.5-0.3-0.5-0.5-0.5h-0.2l0,0v-0.3
			l0,0c0.2,0,0.7,0,1.1,0c0.4,0,0.8,0,1.2,0c0.9,0,1.8,0.3,1.8,1.3c0,0.7-0.4,1.1-1,1.3l1.2,1.9c0.2,0.3,0.3,0.4,0.7,0.4l0,0l0,0
			L-1212.4,846.1L-1212.4,846.1z"/>
		<path fill="#231F20" d="M-1207.4,844.7L-1207.4,844.7v-2.8c0-0.6-0.4-0.7-0.6-0.7h-0.2V841c0.3,0,0.7,0,1,0c0.3,0,0.6,0,0.9,0v0.2
			h-0.1c-0.3,0-0.7,0.1-0.7,0.9v3.4c0,0.3,0,0.5,0,0.7h-0.3l-3.8-4.2v3c0,0.6,0.1,0.9,0.7,0.9h0.1v0.2c-0.3,0-0.6,0-1,0
			c-0.3,0-0.7,0-1,0v-0.2h0.1c0.5,0,0.7-0.3,0.7-0.9v-3.1c0-0.4-0.3-0.7-0.7-0.7h-0.1V841c0.3,0,0.6,0,0.8,0c0.2,0,0.4,0,0.7,0
			L-1207.4,844.7z"/>
		<path fill="#231F20" d="M-1207.4,844.6L-1207.4,844.6L-1207.4,844.6L-1207.4,844.6z M-1207.4,844.7L-1207.4,844.7L-1207.4,844.7z
			 M-1207.3,846.2h0.2c0-0.2,0-0.5,0-0.7v-3.4c0-0.9,0.4-1,0.7-1h0.1V841c-0.3,0-0.6,0-0.9,0s-0.7,0-1,0v0.2h0.1
			c0.2,0,0.7,0.1,0.7,0.7v2.8l0,0l0,0l-3.3-3.7c-0.2,0-0.4,0-0.7,0s-0.5,0-0.8,0v0.2h0.1c0.3,0,0.7,0.3,0.7,0.7v3.1
			c0,0.6-0.2,1-0.7,1h-0.1v0.2c0.3,0,0.6,0,1,0c0.3,0,0.6,0,0.9,0V846h-0.1c-0.6,0-0.7-0.3-0.7-0.9V842L-1207.3,846.2z M-1207,846.3
			h-0.3l-3.7-4.2v3c0,0.6,0.1,0.8,0.7,0.8h0.2l0,0v0.3l0,0c-0.3,0-0.6,0-1,0c-0.3,0-0.7,0-1,0l0,0l0,0v-0.3l0,0h0.1
			c0.5,0,0.6-0.3,0.6-0.9v-3.1c0-0.4-0.3-0.6-0.6-0.6h-0.1l0,0V841l0,0c0.3,0,0.6,0,0.8,0c0.2,0,0.4,0,0.7,0l3.2,3.7V842
			c0-0.6-0.4-0.7-0.6-0.7h-0.2l0,0V841l0,0c0.3,0,0.7,0,1,0c0.3,0,0.6,0,0.9,0l0,0l0,0v0.3l0,0h-0.1c-0.3,0-0.6,0-0.6,0.9v3.4
			C-1207,845.7-1207,846-1207,846.3L-1207,846.3L-1207,846.3z"/>
		<path fill="#231F20" d="M-1204,841.8L-1204,841.8l-0.7,2.1h1.4L-1204,841.8z M-1205.1,845.1c-0.1,0.3-0.2,0.4-0.2,0.6
			s0.3,0.3,0.6,0.3h0.1v0.2c-0.3,0-0.6,0-0.9,0s-0.5,0-0.8,0V846l0,0c0.3,0,0.5-0.2,0.6-0.5l1.2-3.4c0.1-0.3,0.2-0.6,0.3-0.9
			c0.2-0.1,0.5-0.2,0.7-0.3c0,0,0,0,0.1,0c0.1,0,0,0,0.1,0c0,0.1,0,0.1,0.1,0.2l1.4,3.9c0.1,0.3,0.2,0.5,0.3,0.8
			c0.1,0.2,0.2,0.3,0.5,0.3l0,0v0.2c-0.3,0-0.7,0-1,0c-0.4,0-0.7,0-1.1,0v-0.2h0.1c0.2,0,0.5,0,0.5-0.2c0-0.1-0.1-0.3-0.1-0.5
			l-0.3-0.9h-1.7L-1205.1,845.1z"/>
		<path fill="#231F20" d="M-1204,841.8L-1204,841.8L-1204,841.8z M-1204.6,843.8h1.3l-0.6-2L-1204.6,843.8z M-1204.7,843.9l0.7-2.2
			l0,0l0,0l0,0l0,0l0,0l0,0l0,0l0.7,2.2H-1204.7z M-1203.2,846.1c0.4,0,0.7,0,1.1,0c0.3,0,0.7,0,1,0v-0.2l0,0
			c-0.3,0-0.4-0.1-0.5-0.3c-0.1-0.2-0.2-0.5-0.3-0.8l-1.4-3.9c0-0.1,0-0.1-0.1-0.2l0,0l0,0l0,0c-0.1,0.1-0.4,0.2-0.7,0.3
			c0,0.3-0.2,0.6-0.3,0.9l-1.2,3.4c-0.1,0.3-0.4,0.5-0.7,0.5l0,0v0.2c0.3,0,0.5,0,0.8,0c0.3,0,0.6,0,0.9,0v-0.2l0,0
			c-0.2,0-0.6,0-0.6-0.3c0-0.1,0.1-0.3,0.2-0.6l0,0l0,0l0.2-0.8h1.7l0.3,0.9c0.1,0.2,0.2,0.4,0.2,0.5c0,0.2-0.3,0.2-0.5,0.2l0,0
			L-1203.2,846.1L-1203.2,846.1z M-1201.1,846.1c-0.3,0-0.7,0-1,0c-0.4,0-0.7,0-1.1,0l0,0l0,0v-0.3l0,0h0.1c0.2,0,0.4,0,0.4-0.2
			c0-0.1-0.1-0.3-0.1-0.5l-0.3-0.8h-1.6l-0.2,0.7c-0.1,0.3-0.2,0.4-0.2,0.6s0.3,0.2,0.5,0.2h0.1l0,0v0.3l0,0c-0.3,0-0.6,0-0.9,0
			s-0.5,0-0.8,0l0,0l0,0v-0.3l0,0l0,0c0.3,0,0.5-0.2,0.6-0.5l1.2-3.4c0.1-0.3,0.2-0.6,0.3-0.9c0.2-0.1,0.5-0.2,0.7-0.3
			c0,0,0,0,0.1,0h0.1c0,0.1,0,0.1,0.1,0.2l1.4,3.9c0.1,0.3,0.2,0.5,0.3,0.7c0.1,0.2,0.2,0.3,0.5,0.3h0.1l0,0L-1201.1,846.1
			L-1201.1,846.1z"/>
		<path fill="#231F20" d="M-1200.8,841.3c-0.6,0-0.6,0.1-0.7,0.7h-0.2c0-0.2,0.1-0.4,0.1-0.6c0-0.2,0-0.4,0-0.6h0.2
			c0.1,0.2,0.2,0.2,0.4,0.2h3.8c0.2,0,0.4,0,0.4-0.2h0.2c0,0.2-0.1,0.4-0.1,0.6c0,0.2,0,0.4,0,0.6l-0.2,0.1c0-0.3-0.1-0.7-0.5-0.7
			h-1.2v3.9c0,0.6,0.3,0.6,0.6,0.6h0.1v0.2c-0.3,0-0.8,0-1.2,0c-0.4,0-1,0-1.2,0v-0.2h0.1c0.4,0,0.6,0,0.6-0.6v-3.9h-1.2V841.3z"/>
		<path fill="#231F20" d="M-1197.9,846.1c-0.3,0-0.8,0-1.2,0s-1,0-1.2,0l0,0l0,0v-0.3l0,0h0.1c0.4,0,0.6,0,0.6-0.6v-3.9h-1.2l0,0
			l0,0h1.2v4c0,0.6-0.2,0.7-0.6,0.7h-0.1v0.2c0.3,0,0.8,0,1.2,0C-1198.7,846.1-1198.2,846.1-1197.9,846.1v-0.2h-0.1
			c-0.4,0-0.6-0.1-0.6-0.7v-4h1.2c0.5,0,0.6,0.4,0.6,0.7l0.2-0.1c0-0.2,0-0.4,0-0.6c0-0.2,0-0.4,0.1-0.6h-0.1c0,0.2-0.2,0.2-0.4,0.2
			h-3.8l0,0c-0.2,0-0.4,0-0.4-0.2h-0.1c0,0.2,0,0.4,0,0.6c0,0.2-0.1,0.4-0.1,0.6h0.2c0.1-0.5,0.2-0.7,0.7-0.7l0,0l0,0
			c-0.5,0-0.5,0.1-0.7,0.6l0,0l0,0h-0.3l0,0c0-0.2,0.1-0.4,0.1-0.6s0-0.4,0-0.6l0,0l0,0h0.2l0,0c0.1,0.2,0.2,0.2,0.4,0.2l0,0h3.8
			c0.2,0,0.4,0,0.4-0.2l0,0l0,0h0.2l0,0c0,0.2-0.1,0.4-0.1,0.6s0,0.4,0,0.6l0,0l0,0l-0.3,0.1l0,0c0-0.3,0-0.7-0.5-0.7h-1.2v3.9
			c0,0.6,0.2,0.6,0.6,0.6h0.2l0,0L-1197.9,846.1L-1197.9,846.1z"/>
		<path fill="#231F20" d="M-1196.3,845.9h0.1c0.3,0,0.5,0,0.5-0.4v-3.9c0-0.4-0.3-0.4-0.5-0.4h-0.1V841c0.3,0,0.7,0,1.1,0
			c0.4,0,0.8,0,1.2,0v0.2h-0.1c-0.3,0-0.5,0-0.5,0.4v3.9c0,0.4,0.3,0.4,0.5,0.4h0.1v0.2c-0.4,0-0.8,0-1.2,0s-0.8,0-1.1,0V845.9z"/>
		<path fill="#231F20" d="M-1194.1,846.1v-0.2h-0.1c-0.3,0-0.6,0-0.6-0.5v-3.9c0-0.4,0.3-0.5,0.6-0.5h0.1l0,0c-0.3,0-0.8,0-1.1,0
			c-0.4,0-0.8,0-1.1,0v0.2h0.1c0.3,0,0.6,0,0.6,0.5v3.9c0,0.4-0.3,0.5-0.6,0.5h-0.1v0.2c0.3,0,0.7,0,1.1,0
			C-1194.9,846.1-1194.4,846.1-1194.1,846.1 M-1194.1,846.1c-0.4,0-0.8,0-1.2,0c-0.4,0-0.8,0-1.1,0l0,0l0,0v-0.2l0,0l0,0h0.1
			c0.3,0,0.5,0,0.5-0.4v-3.9c0-0.4-0.2-0.4-0.5-0.4h-0.1l0,0v-0.3l0,0c0.3,0,0.7,0,1.1,0c0.4,0,0.8,0,1.2,0l0,0l0,0v0.3l0,0h-0.1
			c-0.3,0-0.5,0-0.5,0.4v3.9c0,0.4,0.2,0.4,0.5,0.4h0.1l0,0V846.1L-1194.1,846.1z"/>
		<path fill="#231F20" d="M-1191,845.9c1.4,0,1.7-1.3,1.7-2.3c0-1.1-0.6-2.4-1.8-2.4c-1.3,0-1.7,1.2-1.7,2.1
			C-1192.8,844.6-1192.2,845.9-1191,845.9 M-1191.1,840.9c1.6,0,2.8,1,2.8,2.5c0,1.7-1.2,2.8-2.8,2.8s-2.8-1.1-2.8-2.6
			C-1193.8,842-1192.7,840.9-1191.1,840.9"/>
		<path fill="#231F20" d="M-1192.8,843.3c0-1,0.4-2.2,1.7-2.2c1.3,0,1.8,1.3,1.8,2.4c0,1.1-0.3,2.4-1.7,2.4l0,0l0,0
			c1.4,0,1.6-1.2,1.6-2.3s-0.6-2.3-1.8-2.4C-1192.4,841.2-1192.8,842.3-1192.8,843.3c0.1,1.3,0.7,2.5,1.8,2.6l0,0l0,0
			C-1192.2,845.9-1192.8,844.6-1192.8,843.3 M-1193.9,843.6c0-1.6,1.2-2.8,2.8-2.8l0,0l0,0C-1192.6,840.9-1193.8,842.1-1193.9,843.6
			c0.1,1.6,1.2,2.6,2.8,2.6s2.8-1.1,2.8-2.8c0-1.6-1.2-2.5-2.8-2.5l0,0l0,0c1.6,0,2.9,1,2.9,2.6c0,1.7-1.2,2.9-2.8,2.9
			C-1192.7,846.3-1193.9,845.2-1193.9,843.6"/>
		<path fill="#231F20" d="M-1183.3,844.7L-1183.3,844.7v-2.8c0-0.6-0.4-0.7-0.6-0.7h-0.2V841c0.3,0,0.7,0,1,0c0.3,0,0.6,0,0.9,0v0.2
			h-0.1c-0.3,0-0.7,0.1-0.7,0.9v3.4c0,0.3,0,0.5,0,0.7h-0.3l-3.8-4.2v3c0,0.6,0.1,0.9,0.7,0.9h0.1v0.2c-0.3,0-0.6,0-1,0
			c-0.3,0-0.7,0-1,0v-0.2h0.1c0.5,0,0.7-0.3,0.7-0.9v-3.1c0-0.4-0.3-0.7-0.7-0.7h-0.1V841c0.3,0,0.6,0,0.8,0s0.4,0,0.7,0
			L-1183.3,844.7z"/>
		<path fill="#231F20" d="M-1183.3,844.6L-1183.3,844.6L-1183.3,844.6L-1183.3,844.6z M-1183.3,844.7L-1183.3,844.7L-1183.3,844.7z
			 M-1183.2,846.2h0.2c0-0.2,0-0.5,0-0.7v-3.4c0-0.9,0.4-1,0.7-1h0.1V841c-0.3,0-0.6,0-0.9,0s-0.7,0-1,0v0.2h0.1
			c0.2,0,0.7,0.1,0.7,0.7v2.8l0,0l0,0l-3.3-3.7c-0.2,0-0.4,0-0.7,0c-0.3,0-0.5,0-0.8,0v0.2h0.1c0.3,0,0.7,0.3,0.7,0.7v3.1
			c0,0.6-0.2,1-0.7,1h-0.1v0.2c0.3,0,0.6,0,1,0c0.3,0,0.6,0,0.9,0V846h-0.1c-0.6,0-0.7-0.3-0.7-0.9V842L-1183.2,846.2z
			 M-1182.9,846.3h-0.3l-3.7-4.2v3c0,0.6,0.1,0.8,0.7,0.8h0.2l0,0v0.3l0,0c-0.3,0-0.6,0-1,0c-0.3,0-0.7,0-1,0l0,0l0,0v-0.3l0,0h0.1
			c0.5,0,0.6-0.3,0.6-0.9v-3.1c0-0.4-0.3-0.6-0.6-0.6h-0.1l0,0V841l0,0c0.3,0,0.6,0,0.8,0s0.4,0,0.7,0l3.2,3.7V842
			c0-0.6-0.4-0.7-0.6-0.7h-0.2l0,0V841l0,0c0.3,0,0.7,0,1,0s0.6,0,0.9,0l0,0l0,0v0.3l0,0h-0.1c-0.3,0-0.6,0-0.6,0.9v3.4
			C-1182.9,845.7-1182.9,846-1182.9,846.3L-1182.9,846.3L-1182.9,846.3z"/>
		<path fill="#231F20" d="M-1179.9,841.8L-1179.9,841.8l-0.7,2.1h1.4L-1179.9,841.8z M-1181,845.1c-0.1,0.3-0.2,0.4-0.2,0.6
			s0.3,0.3,0.6,0.3h0.1v0.2c-0.3,0-0.6,0-0.9,0c-0.3,0-0.5,0-0.8,0V846l0,0c0.3,0,0.5-0.2,0.6-0.5l1.2-3.4c0.1-0.3,0.2-0.6,0.3-0.9
			c0.2-0.1,0.5-0.2,0.7-0.3c0,0,0,0,0.1,0c0,0,0,0,0.1,0c0,0.1,0,0.1,0.1,0.2l1.4,3.9c0.1,0.3,0.2,0.5,0.3,0.8
			c0.1,0.2,0.2,0.3,0.5,0.3l0,0v0.2c-0.3,0-0.7,0-1,0c-0.4,0-0.7,0-1.1,0v-0.2h0.1c0.2,0,0.5,0,0.5-0.2c0-0.1-0.1-0.3-0.1-0.5
			l-0.3-0.9h-1.7L-1181,845.1z"/>
		<path fill="#231F20" d="M-1179.9,841.8L-1179.9,841.8L-1179.9,841.8z M-1180.6,843.8h1.3l-0.6-2L-1180.6,843.8z M-1180.7,843.9
			l0.7-2.2l0,0l0,0l0,0l0,0l0,0l0,0l0,0l0.7,2.2H-1180.7z M-1179.1,846.1c0.4,0,0.7,0,1.1,0c0.3,0,0.7,0,1,0v-0.2l0,0
			c-0.2,0-0.4-0.1-0.5-0.3c-0.1-0.2-0.2-0.5-0.3-0.8l-1.4-3.9c0-0.1,0-0.1-0.1-0.2l0,0l0,0l0,0c-0.1,0.1-0.4,0.2-0.7,0.3
			c0,0.3-0.2,0.6-0.3,0.9l-1.2,3.4c-0.1,0.3-0.4,0.5-0.7,0.5l0,0v0.2c0.3,0,0.5,0,0.8,0s0.6,0,0.9,0v-0.2l0,0c-0.2,0-0.6,0-0.6-0.3
			c0-0.1,0.1-0.3,0.2-0.6l0,0l0,0l0.2-0.8h1.7l0.3,0.9c0.1,0.2,0.1,0.4,0.1,0.5c0,0.2-0.3,0.2-0.5,0.2l0,0V846.1z M-1177.1,846.1
			c-0.3,0-0.7,0-1,0c-0.4,0-0.7,0-1.1,0l0,0l0,0v-0.3l0,0h0.1c0.2,0,0.4,0,0.4-0.2c0-0.1-0.1-0.3-0.1-0.5l-0.3-0.8h-1.6l-0.2,0.7
			c-0.1,0.3-0.2,0.4-0.2,0.6s0.3,0.2,0.5,0.2h0.1l0,0v0.3l0,0c-0.3,0-0.6,0-0.9,0s-0.5,0-0.8,0l0,0l0,0v-0.3l0,0l0,0
			c0.3,0,0.5-0.2,0.6-0.5l1.2-3.4c0.1-0.3,0.2-0.6,0.3-0.9c0.2-0.1,0.5-0.2,0.7-0.3c0,0,0,0,0.1,0h0.1c0,0.1,0,0.1,0.1,0.2l1.4,3.9
			c0.1,0.3,0.2,0.5,0.3,0.8c0.1,0.2,0.2,0.3,0.5,0.3h0.1l0,0L-1177.1,846.1L-1177.1,846.1z"/>
		<path fill="#231F20" d="M-1175.2,845.4c0,0.3,0.2,0.4,0.4,0.4c0.3,0,0.6,0,1,0c0.3,0,0.6-0.2,0.7-0.4c0.1-0.2,0.2-0.4,0.2-0.5h0.2
			c-0.1,0.4-0.2,0.8-0.3,1.3c-0.6,0-1.3,0-1.9,0c-0.6,0-1.3,0-1.9,0V846h0.1c0.3,0,0.6,0,0.6-0.5v-3.8c0-0.4-0.3-0.4-0.6-0.4h-0.1
			V841c0.4,0,0.8,0,1.2,0s0.7,0,1.1,0v0.2h-0.2c-0.3,0-0.5,0-0.5,0.4V845.4L-1175.2,845.4z"/>
		<path fill="#231F20" d="M-1172.9,846.1c0.1-0.4,0.2-0.8,0.3-1.2h-0.2c0,0.2-0.1,0.4-0.2,0.5c-0.1,0.2-0.4,0.4-0.7,0.4
			c-0.2,0-0.4,0-0.6,0c-0.1,0-0.3,0-0.4,0c-0.2,0-0.5-0.1-0.5-0.4v-3.8c0-0.4,0.3-0.4,0.5-0.4h0.2V841c-0.4,0-0.7,0-1.1,0
			c-0.4,0-0.8,0-1.1,0v0.2h0.1c0.3,0,0.6,0,0.6,0.5v3.8c0,0.5-0.3,0.5-0.6,0.5h-0.1v0.2c0.6,0,1.3,0,1.9,0
			C-1174.2,846.1-1173.6,846.1-1172.9,846.1 M-1172.9,846.1c-0.7,0-1.3,0-1.9,0c-0.6,0-1.3,0-1.9,0l0,0l0,0v-0.3l0,0h0.1
			c0.3,0,0.5,0,0.5-0.5v-3.8c0-0.4-0.3-0.4-0.5-0.4h-0.1l0,0v-0.3l0,0c0.4,0,0.8,0,1.2,0s0.7,0,1.1,0l0,0l0,0v0.3l0,0h-0.2
			c-0.3,0-0.5,0-0.5,0.4v3.8c0,0.3,0.2,0.3,0.4,0.4c0.1,0,0.3,0,0.4,0c0.2,0,0.4,0,0.6,0c0.3,0,0.6-0.2,0.7-0.4
			c0.1-0.2,0.2-0.4,0.2-0.5l0,0l0,0h0.3l0,0C-1172.7,845.3-1172.8,845.7-1172.9,846.1L-1172.9,846.1L-1172.9,846.1z"/>
		<path fill="#231F20" d="M-1172.8,841.5L-1172.8,841.5c0.2,0,0.2-0.1,0.2-0.2s-0.1-0.2-0.2-0.2h-0.1L-1172.8,841.5L-1172.8,841.5z
			 M-1173.1,841.9L-1173.1,841.9c0.1-0.1,0.1,0,0.1-0.1v-0.6c0-0.1,0-0.1-0.1-0.1l0,0h0.4c0.1,0,0.3,0.1,0.3,0.2s-0.1,0.2-0.2,0.2
			l0.1,0.2c0.1,0.1,0.1,0.2,0.2,0.2l0,0h-0.2c-0.1,0-0.1-0.2-0.3-0.4h-0.1v0.3c0,0.1,0,0,0.1,0.1l0,0H-1173.1L-1173.1,841.9z
			 M-1172.7,842.2c0.3,0,0.6-0.3,0.6-0.6c0-0.3-0.3-0.6-0.6-0.6c-0.3,0-0.6,0.3-0.6,0.6C-1173.3,841.9-1173.1,842.2-1172.7,842.2
			 M-1172.7,840.8c0.4,0,0.8,0.3,0.8,0.8c0,0.4-0.3,0.8-0.8,0.8c-0.4,0-0.8-0.3-0.8-0.8S-1173.2,840.8-1172.7,840.8"/>
	</g>
	<g>
		<circle fill="#FFFFFF" cx="-1206.3" cy="814.9" r="12.5"/>
		<path fill="#0069AA" d="M-1206.3,827.6c-7.2,0-13.1-5.8-13.1-12.8c0-7.7,5.9-13.1,13.1-13.1h3.4c7.1,0,13.5,5.3,13.5,13.1
			c0,7.1-6.5,12.8-13.5,12.8H-1206.3z M-1206.3,802.8c-6.5,0-11.8,5.3-11.8,11.9c0,6.5,5.3,11.8,11.8,11.8s11.8-5.3,11.8-11.8
			C-1194.4,808.1-1199.7,802.8-1206.3,802.8z M-1208.9,821.7v-14c-2.8,1.1-4.8,3.8-4.8,7C-1213.8,817.9-1211.8,820.6-1208.9,821.7z
			 M-1198.7,814.7c0-3.2-2-5.9-4.8-7v14C-1200.8,820.6-1198.8,817.9-1198.7,814.7z"/>
	</g>
</g>
<g>
	<g>
		<path fill="#FFFFFF" d="M-829.5,558.6c0,2.2-1.8,3.9-4,3.9h-51c-2.2,0-4-1.7-4-3.9v-35.2c0-2.2,1.8-3.9,4-3.9h51
			c2.2,0,4,1.7,4,3.9V558.6z"/>
		<path fill="#004A97" d="M-888.2,523.4v35.2c0,2,1.6,3.6,3.7,3.6h51c2,0,3.7-1.6,3.7-3.6v-35.2c0-2-1.6-3.6-3.7-3.6h-51
			C-886.5,519.8-888.1,521.4-888.2,523.4 M-884.5,562.9c-2.4,0-4.3-1.9-4.3-4.2v-35.2c0-2.4,1.9-4.2,4.3-4.2h51
			c2.4,0,4.3,1.9,4.3,4.2v35.2c0,2.4-1.9,4.2-4.3,4.2H-884.5z"/>
	</g>
	<g>
		<path fill="#231F20" d="M-882,550.6c0,0.8,0.6,0.9,1.1,0.9c2.3,0,3.1-1.7,3.1-3.3c0-2-1.3-3.5-3.4-3.5c-0.4,0-0.6,0-0.8,0V550.6z
			 M-883.1,545.5c0-1-0.5-0.9-1-0.9v-0.3c0.4,0,0.8,0,1.3,0c0.5,0,1.1,0,1.9,0c2.8,0,4.3,1.9,4.3,3.8c0,1.1-0.6,3.7-4.4,3.7
			c-0.5,0-1.1,0-1.6,0c-0.5,0-1,0-1.4,0v-0.3c0.6-0.1,1-0.1,1-0.8V545.5z"/>
		<path fill="#231F20" d="M-875.1,545.3c-0.3,0-0.5-0.3-0.5-0.5c0-0.3,0.3-0.5,0.5-0.5c0.3,0,0.5,0.2,0.5,0.5
			S-874.8,545.3-875.1,545.3 M-876.3,551.5h0.2c0.3,0,0.5,0,0.5-0.4v-2.9c0-0.5-0.2-0.5-0.6-0.8v-0.2c0.5-0.2,1.1-0.4,1.1-0.4
			c0.1,0,0.1-0.1,0.2-0.1c0.1,0,0.1,0.1,0.1,0.2v4.1c0,0.4,0.2,0.4,0.5,0.4h0.2v0.3c-0.4,0-0.7,0-1.1,0c-0.4,0-0.8,0-1.2,0V551.5z"
			/>
		<path fill="#231F20" d="M-872.9,548.3c0-0.4-0.1-0.5-0.6-0.7v-0.2c0.5-0.2,0.9-0.3,1.4-0.5c0,0,0.1,0,0.1,0.1v0.7
			c0.6-0.4,1.1-0.8,1.9-0.8c0.9,0,1.2,0.7,1.2,1.5v2.8c0,0.4,0.2,0.4,0.5,0.4h0.2v0.3c-0.4,0-0.8,0-1.1,0c-0.4,0-0.8,0-1.2,0v-0.3
			h0.2c0.3,0,0.5,0,0.5-0.4v-2.8c0-0.6-0.4-0.9-1-0.9c-0.3,0-0.9,0.3-1.2,0.5v3.2c0,0.4,0.2,0.4,0.5,0.4h0.2v0.3c-0.4,0-0.8,0-1.1,0
			c-0.4,0-0.8,0-1.2,0v-0.3h0.2c0.3,0,0.5,0,0.5-0.4V548.3z"/>
		<path fill="#231F20" d="M-865.5,548.5c0.3,0,0.3-0.1,0.3-0.3c0-0.5-0.3-1-0.9-1c-0.7,0-1.1,0.5-1.2,1.3H-865.5z M-867.4,548.9
			c0,0.1,0,0.3,0,0.6c0.1,1,0.7,1.9,1.6,1.9c0.6,0,1.1-0.3,1.4-0.7l0.1,0.2c-0.5,0.7-1.1,1.2-2,1.2c-1.7,0-2.1-1.7-2.1-2.3
			c0-2.1,1.4-2.7,2.2-2.7c0.9,0,1.8,0.5,1.8,1.7c0,0.1,0,0.1,0,0.2l-0.1,0.1H-867.4z"/>
		<path fill="#231F20" d="M-864.1,551.5h0.3c0.3,0,0.5,0,0.5-0.4v-3c0-0.3-0.4-0.4-0.6-0.5v-0.2c0.8-0.3,1.2-0.6,1.3-0.6
			c0.1,0,0.1,0,0.1,0.1v1h0c0.3-0.4,0.7-1.1,1.4-1.1c0.3,0,0.6,0.2,0.6,0.6c0,0.3-0.2,0.5-0.5,0.5c-0.3,0-0.3-0.3-0.7-0.3
			c-0.2,0-0.8,0.2-0.8,0.9v2.5c0,0.4,0.2,0.4,0.5,0.4h0.6v0.3c-0.6,0-1,0-1.5,0c-0.4,0-0.9,0-1.3,0V551.5z"/>
		<path fill="#231F20" d="M-859.9,550.3c0.1,0.7,0.6,1.3,1.4,1.3c0.6,0,0.9-0.4,0.9-0.8c0-1.3-2.3-0.9-2.3-2.6
			c0-0.6,0.5-1.4,1.7-1.4c0.3,0,0.8,0.1,1.2,0.3l0.1,1.1h-0.2c-0.1-0.7-0.5-1.1-1.2-1.1c-0.4,0-0.8,0.2-0.8,0.7
			c0,1.3,2.5,0.9,2.5,2.6c0,0.7-0.6,1.5-1.8,1.5c-0.4,0-0.9-0.2-1.3-0.4l-0.1-1.2L-859.9,550.3z"/>
		<path fill="#231F20" d="M-847.2,546.3h-0.3c-0.2-1.3-1.1-1.8-2.3-1.8c-1.2,0-3,0.8-3,3.4c0,2.2,1.5,3.7,3.2,3.7
			c1.1,0,1.9-0.7,2.2-1.9l0.2,0.1l-0.2,1.6c-0.5,0.3-1.7,0.6-2.4,0.6c-2.5,0-4.1-1.6-4.1-4c0-2.2,2-3.8,4.1-3.8
			c0.9,0,1.7,0.3,2.5,0.6L-847.2,546.3z"/>
		<path fill="#231F20" d="M-846.8,551.5h0.2c0.3,0,0.5,0,0.5-0.4v-6c0-0.7-0.2-0.7-0.6-0.8v-0.2c0.4-0.1,0.9-0.3,1.1-0.5
			c0.1-0.1,0.2-0.1,0.2-0.1c0.1,0,0.1,0.1,0.1,0.2v7.4c0,0.4,0.2,0.4,0.5,0.4h0.2v0.3c-0.4,0-0.7,0-1.1,0c-0.4,0-0.8,0-1.2,0V551.5z
			"/>
		<path fill="#231F20" d="M-839.9,551.2c0,0.2,0.1,0.2,0.3,0.2c0.1,0,0.3,0,0.4,0v0.2c-0.5,0-1.3,0.3-1.5,0.3l-0.1,0v-0.9
			c-0.6,0.5-1.1,0.9-1.9,0.9c-0.6,0-1.2-0.4-1.2-1.3V548c0-0.3,0-0.5-0.6-0.6v-0.2c0.4,0,1.2-0.1,1.4-0.1c0.1,0,0.1,0.1,0.1,0.3v2.8
			c0,0.3,0,1.2,0.9,1.2c0.4,0,0.8-0.3,1.3-0.7v-2.9c0-0.2-0.5-0.3-0.9-0.4v-0.2c1-0.1,1.6-0.2,1.7-0.2c0.1,0,0.1,0.1,0.1,0.2V551.2z
			"/>
		<path fill="#231F20" d="M-837.8,550.6c0,0.4,0.4,1.1,1.1,1.1c1.1,0,1.6-1.1,1.6-2.1c0-1.2-0.9-2.1-1.7-2.1c-0.4,0-0.7,0.3-1,0.5
			V550.6z M-837.8,547.7c0.4-0.4,1-0.8,1.6-0.8c1.2,0,2,1.1,2,2.3c0,1.4-1,2.8-2.6,2.8c-0.8,0-1.2-0.3-1.5-0.4l-0.3,0.2l-0.2-0.1
			c0.1-0.6,0.2-1.3,0.2-1.9v-4.6c0-0.7-0.2-0.7-0.6-0.8v-0.2c0.4-0.1,0.9-0.3,1.1-0.5c0.1-0.1,0.2-0.1,0.2-0.1
			c0.1,0,0.1,0.1,0.1,0.2V547.7z"/>
		<path fill="#231F20" d="M-884.1,558.1L-884.1,558.1c0.3,0,0.5,0,0.5-0.3v-3.1c0-0.3-0.2-0.3-0.4-0.3h-0.1v-0.2c0.2,0,0.6,0,0.9,0
			c0.3,0,0.6,0,0.9,0v0.2h-0.1c-0.2,0-0.4,0-0.4,0.3v3.1c0,0.3,0.2,0.3,0.4,0.3h0.1v0.2c-0.3,0-0.6,0-0.9,0c-0.3,0-0.6,0-0.9,0
			V558.1z"/>
		<path fill="#231F20" d="M-882.3,558.2l0-0.1h-0.1c-0.2,0-0.5,0-0.5-0.4v-3.1c0-0.3,0.2-0.4,0.5-0.4h0.1v-0.1c-0.3,0-0.6,0-0.9,0
			c-0.3,0-0.6,0-0.8,0v0.1h0.1c0.2,0,0.5,0,0.5,0.4v3.1c0,0.3-0.2,0.4-0.5,0.4h-0.1v0.1c0.2,0,0.6,0,0.8,0
			C-882.9,558.2-882.6,558.2-882.3,558.2 M-882.3,558.3c-0.3,0-0.6,0-0.9,0c-0.3,0-0.6,0-0.9,0h0v0v-0.2v0h0h0.1
			c0.2,0,0.4,0,0.4-0.3v-3.1c0-0.3-0.2-0.3-0.4-0.3h-0.1v0v-0.2h0c0.2,0,0.6,0,0.9,0c0.3,0,0.6,0,0.9,0h0v0v0.2h0h-0.1
			c-0.2,0-0.4,0-0.4,0.3v3.1c0,0.3,0.2,0.3,0.4,0.3h0.1v0L-882.3,558.3L-882.3,558.3z"/>
		<path fill="#231F20" d="M-878.3,557.1L-878.3,557.1l0-2.2c0-0.5-0.3-0.5-0.5-0.5h-0.1v-0.2c0.3,0,0.5,0,0.8,0c0.2,0,0.5,0,0.7,0
			v0.2h-0.1c-0.2,0-0.5,0-0.5,0.7v2.7c0,0.2,0,0.4,0,0.6h-0.2l-3-3.4v2.4c0,0.5,0.1,0.7,0.5,0.7h0.1v0.2c-0.3,0-0.5,0-0.8,0
			c-0.3,0-0.5,0-0.8,0v-0.2h0.1c0.4,0,0.5-0.3,0.5-0.7v-2.5c0-0.3-0.3-0.5-0.5-0.5h-0.1v-0.2c0.2,0,0.4,0,0.7,0c0.2,0,0.3,0,0.5,0
			L-878.3,557.1z"/>
		<path fill="#231F20" d="M-878.3,557.1L-878.3,557.1L-878.3,557.1L-878.3,557.1z M-878.3,557.1L-878.3,557.1L-878.3,557.1z
			 M-878.2,558.3h0.2c0-0.2,0-0.4,0-0.6v-2.7c0-0.7,0.3-0.8,0.5-0.8h0.1v-0.1c-0.2,0-0.5,0-0.7,0c-0.3,0-0.5,0-0.8,0l0,0.1h0.1
			c0.2,0,0.5,0.1,0.5,0.6l0,2.2l0,0l0,0l-2.6-2.9c-0.2,0-0.3,0-0.5,0c-0.2,0-0.4,0-0.6,0l0,0.1h0.1c0.3,0,0.6,0.2,0.6,0.6v2.5
			c0,0.5-0.1,0.8-0.6,0.8l-0.1,0v0.1c0.3,0,0.5,0,0.8,0c0.2,0,0.5,0,0.7,0v-0.1h-0.1c-0.5,0-0.6-0.2-0.6-0.7v-2.5L-878.2,558.3z
			 M-877.9,558.4l-0.2,0l-3-3.3v2.3c0,0.5,0.1,0.7,0.5,0.7h0.1v0v0.2h0c-0.3,0-0.5,0-0.8,0c-0.3,0-0.5,0-0.8,0h0v0V558h0h0.1
			c0.4,0,0.5-0.3,0.5-0.7v-2.5c0-0.3-0.3-0.5-0.5-0.5h-0.1v0v-0.2h0c0.2,0,0.5,0,0.7,0c0.2,0,0.3,0,0.5,0l2.6,2.9v-2.1
			c0-0.5-0.3-0.5-0.5-0.5h-0.2v0v-0.2h0c0.3,0,0.5,0,0.8,0c0.2,0,0.5,0,0.7,0h0v0v0.2h0h-0.1c-0.2,0-0.5,0-0.5,0.7v2.7
			C-877.9,557.9-877.9,558.2-877.9,558.4L-877.9,558.4L-877.9,558.4z"/>
		<path fill="#231F20" d="M-876.5,554.5c-0.4,0-0.5,0.1-0.5,0.5h-0.2c0-0.2,0.1-0.3,0.1-0.5c0-0.2,0-0.3,0-0.5h0.1
			c0,0.2,0.2,0.2,0.4,0.2h3c0.2,0,0.3,0,0.3-0.2l0.1,0c0,0.2,0,0.3-0.1,0.5c0,0.2,0,0.3,0,0.5l-0.2,0.1c0-0.2,0-0.6-0.4-0.6h-1v3.1
			c0,0.5,0.2,0.5,0.5,0.5h0.1v0.2c-0.2,0-0.6,0-1,0c-0.4,0-0.8,0-1,0v-0.2h0.1c0.3,0,0.5,0,0.5-0.5v-3.1H-876.5z"/>
		<path fill="#231F20" d="M-874.2,558.3c-0.2,0-0.6,0-1,0c-0.4,0-0.8,0-1,0h0v0V558h0h0.1c0.3,0,0.5,0,0.5-0.5v-3.1h-0.9v0v0h1v3.1
			c0,0.5-0.2,0.5-0.5,0.5h-0.1v0.1c0.2,0,0.6,0,1,0C-874.8,558.2-874.4,558.2-874.2,558.3l0-0.2h-0.1c-0.3,0-0.5-0.1-0.5-0.5v-3.1h1
			c0.4,0,0.4,0.3,0.5,0.6l0.1,0c0-0.2,0-0.3,0-0.5c0-0.2,0-0.3,0.1-0.4l-0.1,0c0,0.2-0.2,0.2-0.3,0.2h-3h0c-0.1,0-0.3,0-0.3-0.2
			h-0.1c0,0.2,0,0.3,0,0.5c0,0.2,0,0.3-0.1,0.5h0.1c0.1-0.4,0.1-0.5,0.6-0.5v0v0c-0.4,0-0.4,0.1-0.5,0.5l0,0h0h-0.2l0,0
			c0-0.2,0.1-0.3,0.1-0.5c0-0.2,0-0.3,0-0.5v0h0h0.2l0,0c0,0.1,0.1,0.1,0.3,0.2h0h3c0.2,0,0.3,0,0.3-0.2l0,0l0,0l0.2,0l0,0
			c0,0.2,0,0.3-0.1,0.5c0,0.2,0,0.3,0,0.5v0l0,0l-0.2,0.1l0,0c0-0.2,0-0.5-0.4-0.5h-0.9v3.1c0,0.4,0.2,0.5,0.5,0.5h0.1v0
			L-874.2,558.3L-874.2,558.3z"/>
		<path fill="#231F20" d="M-873,558.1L-873,558.1c0.3,0,0.5,0,0.5-0.3v-3.1c0-0.3-0.2-0.3-0.4-0.3h-0.1v-0.2c0.4,0,1,0,1.5,0
			c0.5,0,1.1,0,1.5,0c0,0.3,0,0.6,0,0.9l-0.2,0c0-0.4-0.1-0.7-0.7-0.7h-0.8v1.5h0.7c0.4,0,0.4-0.2,0.5-0.5h0.2c0,0.2,0,0.5,0,0.7
			c0,0.2,0,0.4,0,0.7l-0.2,0c0-0.4-0.1-0.6-0.5-0.6h-0.7v1.4c0,0.4,0.3,0.4,0.7,0.4c0.7,0,1,0,1.2-0.7l0.2,0
			c-0.1,0.3-0.1,0.6-0.2,0.9c-0.4,0-1,0-1.6,0c-0.5,0-1.2,0-1.6,0V558.1z"/>
		<path fill="#231F20" d="M-869.9,558.2c0.1-0.3,0.1-0.6,0.2-0.9l-0.1,0c-0.2,0.7-0.5,0.7-1.2,0.7c-0.4,0-0.7,0-0.7-0.4v-1.4h0.7
			c0.4,0,0.4,0.2,0.5,0.6l0.1,0c0-0.2,0-0.4,0-0.6c0-0.2,0-0.4,0-0.7h-0.1c0,0.3-0.1,0.5-0.5,0.5h-0.7v-1.6h0.8
			c0.6,0,0.7,0.3,0.7,0.7l0.1,0c0-0.2,0-0.4,0-0.6c0-0.1,0-0.2,0-0.3c-0.4,0-1,0-1.5,0c-0.5,0-1.1,0-1.4,0v0.1h0.1
			c0.2,0,0.5,0,0.5,0.4v3.1c0,0.3-0.2,0.4-0.5,0.4h-0.1v0.1c0.3,0,1,0,1.5,0C-870.9,558.2-870.2,558.2-869.9,558.2 M-869.8,558.3
			c-0.4,0-1,0-1.6,0c-0.5,0-1.2,0-1.6,0h0v0v-0.2v0h0h0.1c0.2,0,0.4,0,0.4-0.3v-3.1c0-0.3-0.2-0.3-0.4-0.3h-0.1v0v-0.2h0
			c0.4,0,1,0,1.5,0c0.5,0,1.1,0,1.5,0h0l0,0c0,0.1,0,0.2,0,0.3c0,0.2,0,0.4,0,0.6l0,0l0,0l-0.2,0.1l0,0c0-0.4-0.1-0.7-0.7-0.7h-0.8
			l0,1.5h0.7c0.3,0,0.4-0.2,0.4-0.5l0,0h0h0.2l0,0c0,0.2,0,0.5,0,0.7c0,0.2,0,0.4,0,0.7l0,0l0,0l-0.2,0l0,0c0-0.4,0-0.6-0.4-0.6
			h-0.7v1.3c0,0.4,0.3,0.4,0.7,0.4c0.7,0,1,0,1.2-0.7l0,0l0,0l0.2,0l0,0C-869.7,557.6-869.8,557.9-869.8,558.3L-869.8,558.3
			L-869.8,558.3z"/>
		<path fill="#231F20" d="M-868.1,556.1h0.3c0.6,0,0.9-0.2,0.9-0.9c0-0.5-0.3-0.9-0.9-0.9c-0.2,0-0.2,0-0.3,0V556.1z M-868.8,554.8
			c0-0.4-0.2-0.4-0.4-0.4h-0.1v-0.2c0.2,0,0.5,0,0.9,0c0.3,0,0.6,0,0.9,0c0.7,0,1.4,0.2,1.4,1c0,0.5-0.4,0.8-0.8,1l1,1.5
			c0.2,0.2,0.3,0.3,0.6,0.4v0.2c-0.2,0-0.4,0-0.6,0c-0.2,0-0.4,0-0.5,0c-0.5-0.6-0.8-1.2-1.2-1.9h-0.4v1.3c0,0.4,0.2,0.5,0.5,0.5
			h0.1v0.2c-0.3,0-0.7,0-1,0c-0.3,0-0.6,0-0.8,0v-0.2h0.1c0.2,0,0.4-0.1,0.4-0.3V554.8z"/>
		<path fill="#231F20" d="M-867.8,556.1c0.6,0,0.9-0.2,0.9-0.9c0-0.5-0.3-0.8-0.8-0.8c-0.2,0-0.2,0-0.3,0v1.7H-867.8z M-868.1,556.2
			L-868.1,556.2l0-1.8l0,0c0.1,0,0.2,0,0.3,0c0.5,0,0.9,0.3,0.9,0.9c0,0.7-0.3,0.9-0.9,0.9H-868.1z M-868.1,556.3h0.4l0,0
			c0.4,0.7,0.8,1.3,1.2,1.9c0.2,0,0.4,0,0.5,0c0.2,0,0.4,0,0.5,0v-0.1c-0.3,0-0.4-0.1-0.6-0.4l-1-1.5l0,0c0.5-0.2,0.8-0.5,0.8-1
			c0-0.8-0.6-1-1.4-1c-0.3,0-0.6,0-0.9,0c-0.3,0-0.7,0-0.9,0v0.1h0.1c0.2,0,0.4,0,0.4,0.5v3c0,0.2-0.2,0.3-0.4,0.3h-0.1v0.1
			c0.3,0,0.5,0,0.8,0c0.3,0,0.7,0,1,0v-0.1h-0.1c-0.3,0-0.5,0-0.5-0.5L-868.1,556.3L-868.1,556.3z M-865.4,558.3c-0.2,0-0.4,0-0.6,0
			c-0.2,0-0.4,0-0.6,0c-0.4-0.6-0.8-1.2-1.2-1.9h-0.3v1.2c0,0.4,0.2,0.4,0.5,0.4h0.1v0v0.2h0c-0.3,0-0.7,0-1,0c-0.3,0-0.6,0-0.8,0h0
			v0V558h0h0.1c0.2,0,0.4-0.1,0.4-0.3v-3c0-0.4-0.2-0.4-0.4-0.4h-0.1v0v-0.2h0c0.2,0,0.5,0,0.9,0c0.3,0,0.6,0,0.9,0
			c0.7,0,1.4,0.2,1.4,1.1c0,0.5-0.3,0.9-0.8,1l1,1.5c0.2,0.2,0.3,0.3,0.5,0.3l0,0v0L-865.4,558.3L-865.4,558.3z"/>
		<path fill="#231F20" d="M-861.4,557.1L-861.4,557.1l0-2.2c0-0.5-0.3-0.5-0.5-0.5h-0.1v-0.2c0.3,0,0.5,0,0.8,0c0.2,0,0.5,0,0.7,0
			v0.2h-0.1c-0.2,0-0.5,0-0.5,0.7v2.7c0,0.2,0,0.4,0,0.6h-0.2l-3-3.4v2.4c0,0.5,0.1,0.7,0.5,0.7h0.1v0.2c-0.3,0-0.5,0-0.8,0
			c-0.3,0-0.5,0-0.8,0v-0.2h0.1c0.4,0,0.5-0.3,0.5-0.7v-2.5c0-0.3-0.3-0.5-0.5-0.5h-0.1v-0.2c0.2,0,0.5,0,0.7,0c0.2,0,0.3,0,0.5,0
			L-861.4,557.1z"/>
		<path fill="#231F20" d="M-861.4,557.1L-861.4,557.1L-861.4,557.1L-861.4,557.1z M-861.4,557.1L-861.4,557.1L-861.4,557.1z
			 M-861.3,558.3h0.2c0-0.2,0-0.4,0-0.6v-2.7c0-0.7,0.3-0.8,0.5-0.8h0.1v-0.1c-0.2,0-0.5,0-0.7,0c-0.3,0-0.5,0-0.8,0v0.1h0.1
			c0.2,0,0.5,0.1,0.5,0.6l0,2.2l0,0l0,0l-2.6-2.9c-0.2,0-0.3,0-0.5,0c-0.2,0-0.4,0-0.6,0v0.1h0.1c0.3,0,0.6,0.2,0.6,0.6v2.5
			c0,0.5-0.1,0.8-0.6,0.8l-0.1,0v0.1c0.3,0,0.5,0,0.8,0c0.2,0,0.5,0,0.7,0v-0.1h-0.1c-0.5,0-0.6-0.2-0.6-0.7v-2.5L-861.3,558.3z
			 M-861.1,558.4l-0.2,0l-3-3.3v2.3c0,0.5,0.1,0.7,0.5,0.7h0.1v0v0.2h0c-0.3,0-0.5,0-0.8,0c-0.3,0-0.5,0-0.8,0h0v0V558h0h0.1
			c0.4,0,0.5-0.3,0.5-0.7v-2.5c0-0.3-0.3-0.5-0.5-0.5h-0.1v0v-0.2h0c0.2,0,0.5,0,0.7,0c0.2,0,0.3,0,0.5,0l2.6,2.9v-2.1
			c0-0.5-0.3-0.5-0.5-0.5h-0.2v0v-0.2h0c0.3,0,0.5,0,0.8,0c0.2,0,0.5,0,0.7,0h0v0v0.2h0h-0.1c-0.2,0-0.5,0-0.5,0.7v2.7
			C-861.1,557.9-861.1,558.2-861.1,558.4L-861.1,558.4L-861.1,558.4z"/>
		<path fill="#231F20" d="M-858.7,554.8L-858.7,554.8l-0.6,1.7h1.1L-858.7,554.8z M-859.6,557.4c-0.1,0.2-0.1,0.4-0.1,0.5
			c0,0.2,0.2,0.2,0.4,0.2h0.1v0.2c-0.2,0-0.5,0-0.7,0c-0.2,0-0.4,0-0.6,0v-0.2h0c0.2,0,0.4-0.1,0.5-0.4l0.9-2.7
			c0.1-0.2,0.2-0.5,0.2-0.7c0.2-0.1,0.4-0.2,0.5-0.3c0,0,0,0,0,0c0,0,0,0,0,0c0,0,0,0.1,0.1,0.1l1.1,3.1c0.1,0.2,0.1,0.4,0.2,0.6
			c0.1,0.2,0.2,0.2,0.4,0.2h0v0.2c-0.3,0-0.5,0-0.8,0c-0.3,0-0.6,0-0.9,0v-0.2h0.1c0.1,0,0.4,0,0.4-0.2c0-0.1-0.1-0.2-0.1-0.4
			l-0.2-0.7h-1.3L-859.6,557.4z"/>
		<path fill="#231F20" d="M-858.7,554.8L-858.7,554.8L-858.7,554.8z M-859.2,556.5h1l-0.5-1.6L-859.2,556.5z M-859.3,556.5l0.6-1.7
			h0h0v0l0,0l0,0v0h0l0.6,1.7H-859.3z M-858.1,558.2c0.3,0,0.6,0,0.9,0c0.3,0,0.5,0,0.8,0v-0.1h0c-0.2,0-0.3-0.1-0.4-0.2
			c-0.1-0.2-0.1-0.4-0.2-0.6l-1.1-3.1c0,0,0-0.1,0-0.1c0,0,0,0,0,0h0c0,0,0,0,0,0c-0.1,0.1-0.3,0.2-0.5,0.2c0,0.2-0.1,0.5-0.2,0.7
			l-0.9,2.7c-0.1,0.3-0.3,0.4-0.5,0.4h0v0.1c0.2,0,0.4,0,0.6,0c0.2,0,0.5,0,0.7,0v-0.1h0c-0.2,0-0.5,0-0.5-0.2
			c0-0.1,0.1-0.3,0.1-0.5l0,0l0,0l0.2-0.6h1.4l0.2,0.7c0.1,0.2,0.1,0.3,0.1,0.4c0,0.2-0.3,0.2-0.4,0.2h0V558.2z M-856.4,558.3
			c-0.3,0-0.5,0-0.8,0c-0.3,0-0.6,0-0.9,0l0,0v0V558h0h0.1c0.1,0,0.3,0,0.3-0.1c0-0.1-0.1-0.2-0.1-0.4l-0.2-0.7h-1.3l-0.2,0.6
			c-0.1,0.2-0.1,0.4-0.1,0.4c0,0.1,0.2,0.2,0.4,0.2h0.1v0v0.2l0,0c-0.2,0-0.5,0-0.7,0c-0.2,0-0.4,0-0.6,0l0,0v0V558h0h0
			c0.2,0,0.4-0.1,0.5-0.4l0.9-2.7c0.1-0.2,0.2-0.5,0.2-0.7c0.2-0.1,0.4-0.2,0.5-0.3c0,0,0,0,0.1,0c0,0,0,0,0.1,0c0,0,0,0.1,0.1,0.1
			l1.1,3.1c0.1,0.2,0.1,0.4,0.2,0.6c0.1,0.2,0.2,0.2,0.4,0.2h0.1v0L-856.4,558.3L-856.4,558.3z"/>
		<path fill="#231F20" d="M-856.2,554.5c-0.4,0-0.5,0.1-0.5,0.5h-0.2c0-0.2,0.1-0.3,0.1-0.5c0-0.2,0-0.3,0-0.5h0.1
			c0,0.2,0.2,0.2,0.3,0.2h3c0.2,0,0.3,0,0.3-0.2l0.1,0c0,0.2,0,0.3-0.1,0.5c0,0.2,0,0.3,0,0.5l-0.2,0.1c0-0.2,0-0.6-0.4-0.6h-1v3.1
			c0,0.5,0.2,0.5,0.5,0.5h0.1v0.2c-0.2,0-0.6,0-1,0c-0.3,0-0.8,0-1,0v-0.2h0.1c0.3,0,0.5,0,0.5-0.5v-3.1H-856.2z"/>
		<path fill="#231F20" d="M-853.9,558.3c-0.2,0-0.6,0-1,0c-0.3,0-0.8,0-1,0h0v0V558h0h0.1c0.3,0,0.5,0,0.5-0.5l0-3.1h-0.9v0v0h1v3.1
			c0,0.5-0.2,0.5-0.5,0.5h-0.1v0.1c0.2,0,0.6,0,1,0C-854.5,558.2-854.1,558.2-853.9,558.3l0-0.2h-0.1c-0.3,0-0.5-0.1-0.5-0.5v-3.1h1
			c0.4,0,0.4,0.3,0.5,0.6l0.1,0c0-0.2,0-0.3,0-0.5c0-0.2,0-0.3,0.1-0.4l-0.1,0c0,0.2-0.2,0.2-0.3,0.2h-3h0c-0.1,0-0.3,0-0.3-0.2
			h-0.1c0,0.2,0,0.3,0,0.5c0,0.2,0,0.3-0.1,0.5h0.1c0.1-0.4,0.1-0.5,0.6-0.5v0v0c-0.4,0-0.4,0.1-0.5,0.5l0,0h0h-0.2l0,0
			c0-0.2,0.1-0.3,0.1-0.5c0-0.2,0-0.3,0-0.5v0h0h0.2l0,0c0,0.1,0.1,0.1,0.3,0.2h0h3c0.2,0,0.3,0,0.3-0.2l0,0l0,0l0.2,0l0,0
			c0,0.2,0,0.3-0.1,0.5c0,0.2,0,0.3,0,0.5v0l0,0l-0.2,0.1l0,0c0-0.2,0-0.5-0.4-0.5h-0.9v3.1c0,0.4,0.2,0.5,0.5,0.5h0.1v0
			L-853.9,558.3L-853.9,558.3z"/>
		<path fill="#231F20" d="M-852.6,558.1L-852.6,558.1c0.3,0,0.5,0,0.5-0.3v-3.1c0-0.3-0.2-0.3-0.4-0.3h-0.1v-0.2c0.2,0,0.6,0,0.9,0
			c0.3,0,0.6,0,0.9,0v0.2h-0.1c-0.2,0-0.4,0-0.4,0.3v3.1c0,0.3,0.2,0.3,0.4,0.3h0.1v0.2c-0.3,0-0.6,0-0.9,0c-0.3,0-0.6,0-0.9,0
			V558.1z"/>
		<path fill="#231F20" d="M-850.9,558.2v-0.1h-0.1c-0.2,0-0.5,0-0.5-0.4v-3.1c0-0.3,0.2-0.4,0.5-0.4h0.1v-0.1c-0.3,0-0.6,0-0.9,0
			c-0.3,0-0.6,0-0.8,0v0.1h0.1c0.2,0,0.5,0,0.5,0.4v3.1c0,0.3-0.2,0.4-0.5,0.4h-0.1v0.1c0.2,0,0.6,0,0.8,0
			C-851.5,558.2-851.1,558.2-850.9,558.2 M-850.8,558.3c-0.3,0-0.6,0-0.9,0c-0.3,0-0.6,0-0.9,0h0v0v-0.2v0h0h0.1
			c0.2,0,0.4,0,0.4-0.3v-3.1c0-0.3-0.2-0.3-0.4-0.3h-0.1v0v-0.2h0c0.2,0,0.6,0,0.9,0c0.3,0,0.6,0,0.9,0h0v0v0.2h0h-0.1
			c-0.2,0-0.4,0-0.4,0.3v3.1c0,0.3,0.2,0.3,0.4,0.3h0.1v0L-850.8,558.3L-850.8,558.3z"/>
		<path fill="#231F20" d="M-848.4,558.1c1.1,0,1.3-1,1.3-1.9c0-0.9-0.5-1.9-1.4-1.9c-1,0-1.3,0.9-1.3,1.7
			C-849.8,557.1-849.4,558.1-848.4,558.1 M-848.5,554.1c1.2,0,2.2,0.8,2.2,2c0,1.3-1,2.2-2.2,2.2c-1.2,0-2.2-0.8-2.2-2.1
			C-850.7,555-849.7,554.1-848.5,554.1"/>
		<path fill="#231F20" d="M-849.9,556c0-0.8,0.3-1.7,1.4-1.7c1,0,1.5,1.1,1.5,1.9c0,0.9-0.2,1.9-1.4,1.9v0v0c1.1,0,1.3-1,1.3-1.8
			c0-0.8-0.5-1.9-1.4-1.9C-849.5,554.4-849.8,555.3-849.9,556c0.1,1,0.5,2,1.5,2v0v0C-849.4,558.1-849.9,557.1-849.9,556
			 M-850.7,556.2c0-1.2,1-2.2,2.2-2.2v0v0C-849.7,554.1-850.6,555-850.7,556.2c0.1,1.2,1,2.1,2.2,2.1c1.2,0,2.2-0.9,2.2-2.2
			c0-1.2-1-2-2.2-2v0v0c1.3,0,2.3,0.8,2.3,2c0,1.4-1,2.3-2.2,2.3C-849.7,558.4-850.7,557.5-850.7,556.2"/>
		<path fill="#231F20" d="M-842.3,557.1L-842.3,557.1l0-2.2c0-0.5-0.3-0.5-0.5-0.5h-0.1v-0.2c0.3,0,0.5,0,0.8,0c0.2,0,0.5,0,0.7,0
			v0.2h-0.1c-0.2,0-0.5,0-0.5,0.7v2.7c0,0.2,0,0.4,0,0.6h-0.2l-3-3.4v2.4c0,0.5,0.1,0.7,0.5,0.7h0.1v0.2c-0.3,0-0.5,0-0.8,0
			c-0.3,0-0.5,0-0.8,0v-0.2h0.1c0.4,0,0.5-0.3,0.5-0.7v-2.5c0-0.3-0.3-0.5-0.5-0.5h-0.1v-0.2c0.2,0,0.4,0,0.7,0c0.2,0,0.3,0,0.5,0
			L-842.3,557.1z"/>
		<path fill="#231F20" d="M-842.3,557.1L-842.3,557.1L-842.3,557.1L-842.3,557.1z M-842.3,557.1L-842.3,557.1L-842.3,557.1z
			 M-842.2,558.3h0.2c0-0.2,0-0.4,0-0.6v-2.7c0-0.7,0.3-0.8,0.5-0.8h0.1v-0.1c-0.2,0-0.5,0-0.7,0c-0.3,0-0.5,0-0.8,0v0.1h0.1
			c0.2,0,0.5,0.1,0.5,0.6l0,2.2l0,0l0,0l-2.6-2.9c-0.2,0-0.3,0-0.5,0c-0.2,0-0.4,0-0.6,0v0.1h0.1c0.3,0,0.6,0.2,0.6,0.6v2.5
			c0,0.5-0.1,0.8-0.6,0.8l-0.1,0v0.1c0.3,0,0.5,0,0.8,0c0.2,0,0.5,0,0.7,0v-0.1h-0.1c-0.5,0-0.6-0.2-0.6-0.7v-2.5L-842.2,558.3z
			 M-842,558.4l-0.2,0l-3-3.3v2.3c0,0.5,0.1,0.7,0.5,0.7h0.1v0v0.2h0c-0.3,0-0.5,0-0.8,0c-0.3,0-0.5,0-0.8,0h0v0V558h0h0.1
			c0.4,0,0.5-0.2,0.5-0.7v-2.5c0-0.3-0.3-0.5-0.5-0.5h-0.1v0v-0.2h0c0.2,0,0.5,0,0.7,0c0.2,0,0.3,0,0.5,0l2.6,2.9v-2.1
			c0-0.5-0.3-0.5-0.5-0.5h-0.2v0v-0.2h0c0.3,0,0.5,0,0.8,0c0.2,0,0.5,0,0.7,0h0v0v0.2h0h-0.1c-0.2,0-0.5,0-0.5,0.7v2.7
			C-842,557.9-842,558.2-842,558.4L-842,558.4L-842,558.4z"/>
		<path fill="#231F20" d="M-839.6,554.8L-839.6,554.8l-0.6,1.7h1.1L-839.6,554.8z M-840.5,557.4c-0.1,0.2-0.1,0.4-0.1,0.5
			c0,0.2,0.2,0.2,0.4,0.2h0.1v0.2c-0.2,0-0.5,0-0.7,0c-0.2,0-0.4,0-0.6,0v-0.2h0c0.2,0,0.4-0.1,0.5-0.4l0.9-2.7
			c0.1-0.2,0.2-0.5,0.2-0.7c0.2-0.1,0.4-0.2,0.5-0.3c0,0,0,0,0,0c0,0,0,0,0,0c0,0,0,0.1,0.1,0.1l1.1,3.1c0.1,0.2,0.1,0.4,0.2,0.6
			c0.1,0.2,0.2,0.2,0.4,0.2h0v0.2c-0.3,0-0.5,0-0.8,0c-0.3,0-0.6,0-0.9,0v-0.2h0.1c0.1,0,0.4,0,0.4-0.2c0-0.1-0.1-0.2-0.1-0.4
			l-0.2-0.7h-1.3L-840.5,557.4z"/>
		<path fill="#231F20" d="M-839.7,554.8L-839.7,554.8L-839.7,554.8z M-840.2,556.5h1l-0.5-1.6L-840.2,556.5z M-840.2,556.5l0.6-1.7
			h0h0v0l0,0l0,0v0h0l0.6,1.7H-840.2z M-839,558.2c0.3,0,0.6,0,0.9,0c0.3,0,0.5,0,0.8,0l0-0.1h0c-0.2,0-0.3-0.1-0.4-0.2
			c-0.1-0.2-0.1-0.4-0.2-0.6l-1.1-3.1c0,0,0-0.1,0-0.1c0,0,0,0,0,0h0c0,0,0,0,0,0c-0.1,0.1-0.3,0.2-0.5,0.2c0,0.2-0.1,0.5-0.2,0.7
			l-0.9,2.7c-0.1,0.3-0.3,0.4-0.5,0.4h0v0.1c0.2,0,0.4,0,0.6,0c0.2,0,0.5,0,0.7,0v-0.1h0c-0.2,0-0.5,0-0.5-0.2
			c0-0.1,0.1-0.3,0.1-0.5l0,0l0,0l0.2-0.6h1.4l0.2,0.7c0.1,0.2,0.1,0.3,0.1,0.4c0,0.2-0.3,0.2-0.4,0.2h0V558.2z M-837.4,558.3
			c-0.3,0-0.5,0-0.8,0c-0.3,0-0.6,0-0.9,0l0,0v0V558h0h0.1c0.1,0,0.3,0,0.3-0.1c0-0.1-0.1-0.2-0.1-0.4l-0.2-0.7h-1.3l-0.2,0.6
			c-0.1,0.2-0.1,0.4-0.1,0.4c0,0.1,0.2,0.2,0.4,0.2h0.1v0v0.2l0,0c-0.2,0-0.5,0-0.7,0c-0.2,0-0.4,0-0.6,0l0,0v0V558h0h0
			c0.2,0,0.4-0.1,0.5-0.4l0.9-2.7c0.1-0.2,0.2-0.5,0.2-0.7c0.2-0.1,0.4-0.2,0.5-0.3c0,0,0,0,0.1,0c0,0,0,0,0.1,0c0,0,0,0.1,0.1,0.1
			l1.1,3.1c0.1,0.2,0.1,0.4,0.2,0.6c0.1,0.2,0.2,0.2,0.4,0.2h0.1v0L-837.4,558.3L-837.4,558.3z"/>
		<path fill="#231F20" d="M-835.9,557.7c0,0.2,0.2,0.3,0.3,0.3c0.2,0,0.5,0,0.8,0c0.2,0,0.5-0.2,0.6-0.3c0.1-0.1,0.1-0.3,0.2-0.4
			h0.2c-0.1,0.3-0.1,0.7-0.2,1c-0.5,0-1,0-1.5,0c-0.5,0-1,0-1.5,0v-0.2h0.1c0.2,0,0.4,0,0.4-0.4v-3c0-0.3-0.2-0.3-0.4-0.3h-0.1v-0.2
			c0.3,0,0.6,0,0.9,0c0.3,0,0.6,0,0.9,0v0.2h-0.1c-0.2,0-0.4,0-0.4,0.3V557.7z"/>
		<path fill="#231F20" d="M-834.1,558.2c0.1-0.3,0.1-0.6,0.2-0.9h-0.1c0,0.1-0.1,0.3-0.2,0.4c-0.1,0.2-0.3,0.3-0.6,0.3
			c-0.2,0-0.3,0-0.4,0c-0.1,0-0.2,0-0.3,0c-0.2,0-0.4-0.1-0.4-0.4v-3c0-0.3,0.2-0.3,0.4-0.3h0.1v-0.1c-0.3,0-0.6,0-0.9,0
			c-0.3,0-0.6,0-0.9,0v0.1h0.1c0.2,0,0.5,0,0.5,0.4v3c0,0.4-0.3,0.4-0.5,0.4h-0.1v0.1c0.5,0,1,0,1.5,0
			C-835.1,558.2-834.6,558.2-834.1,558.2 M-834.1,558.3c-0.5,0-1,0-1.5,0c-0.5,0-1,0-1.5,0h0v0V558h0h0.1c0.2,0,0.4,0,0.4-0.4v-3
			c0-0.3-0.2-0.3-0.4-0.3h-0.1v0v-0.2h0c0.3,0,0.6,0,0.9,0c0.3,0,0.6,0,0.9,0h0v0v0.2h0h-0.1c-0.2,0-0.4,0-0.4,0.3v3
			c0,0.2,0.1,0.3,0.3,0.3c0.1,0,0.2,0,0.3,0c0.1,0,0.3,0,0.4,0c0.2,0,0.4-0.2,0.5-0.3c0.1-0.1,0.1-0.3,0.2-0.4l0,0h0h0.2l0,0
			C-833.9,557.6-834,557.9-834.1,558.3L-834.1,558.3L-834.1,558.3z"/>
		<path fill="#231F20" d="M-834,554.6L-834,554.6c0.2,0,0.2-0.1,0.2-0.2c0-0.1-0.1-0.1-0.1-0.1h-0.1V554.6z M-834.2,554.9
			L-834.2,554.9C-834.2,554.9-834.2,554.9-834.2,554.9l0.1-0.5c0-0.1,0-0.1-0.1-0.1v0h0.3c0.1,0,0.2,0.1,0.2,0.2
			c0,0.1-0.1,0.2-0.1,0.2l0.1,0.1c0,0.1,0.1,0.1,0.1,0.1v0h-0.1c-0.1,0-0.1-0.1-0.2-0.3h-0.1v0.2c0,0,0,0,0.1,0v0H-834.2z
			 M-833.9,555.1c0.3,0,0.5-0.2,0.5-0.5c0-0.3-0.2-0.5-0.5-0.5c-0.3,0-0.5,0.2-0.5,0.5C-834.4,554.9-834.2,555.1-833.9,555.1
			 M-833.9,554c0.4,0,0.6,0.3,0.6,0.6c0,0.3-0.3,0.6-0.6,0.6c-0.4,0-0.6-0.3-0.6-0.6C-834.6,554.3-834.3,554-833.9,554"/>
	</g>
	<g>
		<circle fill="#FFFFFF" cx="-860.5" cy="533.5" r="9.9"/>
		<path fill="#004A97" d="M-860.5,543.6c-5.7,0-10.3-4.6-10.3-10.2c0-6.1,4.7-10.3,10.3-10.3h2.7c5.6,0,10.7,4.2,10.7,10.3
			c0,5.6-5.1,10.2-10.7,10.2H-860.5z M-860.5,524c-5.2,0-9.4,4.2-9.4,9.4c0,5.2,4.2,9.4,9.4,9.4c5.2,0,9.4-4.2,9.4-9.4
			C-851.1,528.2-855.3,524-860.5,524z M-862.6,538.9v-11.1c-2.2,0.9-3.8,3-3.8,5.5C-866.4,535.9-864.9,538-862.6,538.9z
			 M-854.5,533.3c0-2.5-1.6-4.7-3.8-5.6v11.1C-856.1,538-854.6,535.9-854.5,533.3z"/>
	</g>
</g>
</svg>
