<?xml version="1.0" encoding="utf-8"?>
<!-- Generator: Adobe Illustrator 18.1.1, SVG Export Plug-In . SVG Version: 6.00 Build 0)  -->
<!DOCTYPE svg PUBLIC "-//W3C//DTD SVG 1.1//EN" "http://www.w3.org/Graphics/SVG/1.1/DTD/svg11.dtd">
<svg width="100px" height="48px" version="1.1" id="Layer_1" xmlns="http://www.w3.org/2000/svg" xmlns:xlink="http://www.w3.org/1999/xlink" x="0px" y="0px"
	 viewBox="-909 517 100 48" enable-background="new -909 517 100 48" xml:space="preserve">
<g>
	<rect x="-890.4" y="521" fill="#FFFFFF" width="62.7" height="40"/>
	<path fill="#231F20" d="M-827.6,520.8l-63,0l0,40.4l63.2,0l0-40.4H-827.6z M-827.9,521.2c0,0.4,0,39.1,0,39.5c-0.5,0-61.8,0-62.3,0
		c0-0.5,0-39.1,0-39.5C-889.7,521.3-828.3,521.2-827.9,521.2z"/>
	<path fill="#F58220" d="M-827.9,543.2c0,0-17.1,12.1-48.5,17.5h48.5V543.2z"/>
	<g>
		<path fill="#F58220" d="M-857.5,532.4c-2.6,0-4.7,2-4.7,4.5c0,2.6,2,4.6,4.7,4.6c2.6,0,4.7-2,4.7-4.6
			C-852.9,534.4-854.9,532.4-857.5,532.4z"/>
		<path fill="#001722" d="M-884,532.6h-2.5v8.7h2.5c1.3,0,2.3-0.3,3.1-1c1-0.8,1.6-2.1,1.6-3.4C-879.3,534.4-881.2,532.6-884,532.6z
			 M-882,539.1c-0.5,0.5-1.2,0.7-2.3,0.7h-0.5V534h0.5c1.1,0,1.8,0.2,2.3,0.7c0.6,0.5,0.9,1.3,0.9,2.2
			C-881,537.8-881.4,538.6-882,539.1z"/>
		<rect x="-878.5" y="532.6" fill="#001722" width="1.7" height="8.7"/>
		<path fill="#001722" d="M-872.6,535.9c-1-0.4-1.3-0.6-1.3-1.1c0-0.6,0.5-1,1.3-1c0.5,0,0.9,0.2,1.4,0.7l0.9-1.2
			c-0.7-0.6-1.6-1-2.6-1c-1.5,0-2.7,1.1-2.7,2.5c0,1.2,0.6,1.8,2.2,2.4c0.7,0.2,1,0.4,1.2,0.5c0.3,0.2,0.5,0.5,0.5,0.9
			c0,0.7-0.6,1.2-1.3,1.2c-0.8,0-1.5-0.4-1.9-1.2l-1.1,1.1c0.8,1.2,1.7,1.7,3,1.7c1.8,0,3-1.2,3-2.9
			C-870.1,537.3-870.7,536.6-872.6,535.9z"/>
		<path fill="#001722" d="M-869.6,536.9c0,2.6,2,4.6,4.6,4.6c0.7,0,1.4-0.1,2.1-0.5v-2c-0.7,0.7-1.3,1-2.1,1c-1.7,0-2.9-1.2-2.9-3
			c0-1.7,1.3-3,2.9-3c0.8,0,1.4,0.3,2.1,1v-2c-0.7-0.4-1.4-0.5-2.1-0.5C-867.5,532.4-869.6,534.4-869.6,536.9z"/>
		<polygon fill="#001722" points="-849,538.4 -851.3,532.6 -853.2,532.6 -849.5,541.5 -848.6,541.5 -844.8,532.6 -846.6,532.6 		"/>
		<polygon fill="#001722" points="-844,541.3 -839.2,541.3 -839.2,539.8 -842.3,539.8 -842.3,537.5 -839.3,537.5 -839.3,536 
			-842.3,536 -842.3,534 -839.2,534 -839.2,532.6 -844,532.6 		"/>
		<path fill="#001722" d="M-832.4,535.1c0-1.6-1.1-2.6-3.1-2.6h-2.5v8.7h1.7v-3.5h0.2l2.4,3.5h2.1l-2.8-3.7
			C-833.1,537.4-832.4,536.5-832.4,535.1z M-835.8,536.6h-0.5v-2.7h0.5c1.1,0,1.6,0.4,1.6,1.3C-834.2,536.1-834.7,536.6-835.8,536.6
			z"/>
		<path fill="#231F20" d="M-831.2,533.2c0-0.2-0.1-0.2-0.3-0.2h-0.2v0.8h0.2v-0.3l0.2,0.3h0.2l-0.3-0.3
			C-831.3,533.4-831.2,533.3-831.2,533.2z M-831.5,533.3L-831.5,533.3l0-0.2h0c0.1,0,0.1,0,0.1,0.1
			C-831.4,533.3-831.4,533.3-831.5,533.3z"/>
		<path fill="#231F20" d="M-831.5,532.7c-0.4,0-0.7,0.3-0.7,0.7c0,0.4,0.3,0.7,0.7,0.7c0.4,0,0.7-0.3,0.7-0.7
			C-830.8,533-831.1,532.7-831.5,532.7z M-831.5,533.9c-0.3,0-0.5-0.2-0.5-0.6c0-0.3,0.2-0.6,0.5-0.6c0.3,0,0.5,0.2,0.5,0.6
			C-830.9,533.7-831.2,533.9-831.5,533.9z"/>
	</g>
</g>
</svg>
