<?xml version="1.0" encoding="utf-8"?>
<!-- Generator: Adobe Illustrator 19.0.0, SVG Export Plug-In . SVG Version: 6.00 Build 0)  -->
<svg version="1.1" id="Layer_1" xmlns="http://www.w3.org/2000/svg" xmlns:xlink="http://www.w3.org/1999/xlink" x="0px" y="0px"
	 width="100px" height="48px" viewBox="-561 373 100 48" style="enable-background:new -561 373 100 48;" xml:space="preserve">
<style type="text/css">
	.st0{fill:#FE0000;}
	.st1{fill:#0B3084;}
	.st2{fill:#026B6F;}
	.st3{fill-rule:evenodd;clip-rule:evenodd;fill:#FFFFFF;}
	.st4{fill:#FFFFFF;}
</style>
<title>maestro-logo</title>
<desc>Created with Sketch.</desc>
<g>
	<path class="st0" d="M-527.8,379.8h13.8c1.9,0,3.1,1.6,2.7,3.5l-6.4,27.5c-0.5,1.9-2.4,3.5-4.3,3.5h-13.8c-1.9,0-3.1-1.6-2.7-3.5
		l6.4-27.5C-531.6,381.3-529.7,379.8-527.8,379.8z"/>
	<path class="st1" d="M-515.2,379.8h15.8c1.9,0,1.1,1.6,0.6,3.5l-6.4,27.5c-0.4,1.9-0.3,3.5-2.2,3.5h-15.8c-1.9,0-3.1-1.6-2.7-3.5
		l6.4-27.5C-519,381.3-517.1,379.8-515.2,379.8z"/>
	<path class="st2" d="M-500,379.8h13.8c1.9,0,3.1,1.6,2.7,3.5l-6.4,27.5c-0.5,1.9-2.4,3.5-4.3,3.5H-508c-1.9,0-3.1-1.6-2.7-3.5
		l6.4-27.5C-503.8,381.3-501.9,379.8-500,379.8z"/>
	<path class="st3" d="M-502.2,405.6h1.3l0.4-1.2h-1.3L-502.2,405.6z M-501.2,402.2l-0.4,1.5c0,0,0.5-0.3,0.8-0.3
		c0.3-0.1,0.7-0.1,0.7-0.1l0.3-1H-501.2 M-500.6,400.1l-0.4,1.4c0,0,0.5-0.2,0.7-0.3c0.3-0.1,0.7-0.1,0.7-0.1l0.3-1H-500.6
		 M-497.7,400.1l-1.7,5.6h0.5l-0.4,1.1h-0.4l-0.1,0.4h-1.6l0.1-0.4h-3.2l0.3-1.1h0.3l1.7-5.6l0.3-1.1h1.6l-0.2,0.6
		c0,0,0.4-0.3,0.8-0.4c0.4-0.1,2.8-0.1,2.8-0.1l-0.3,1.1H-497.7"/>
	<path class="st4" d="M-497,398.9h1.7l0,0.6c0,0.1,0.1,0.2,0.3,0.2h0.4l-0.3,1.1h-0.9c-0.8,0.1-1.1-0.3-1.1-0.7L-497,398.9z"/>
	<path class="st4" d="M-496.7,404h-1.7l0.3-1h1.9l0.3-0.9h-1.9l0.3-1.1h5.2l-0.3,1.1h-1.7l-0.3,0.9h1.8l-0.3,1h-1.9l-0.3,0.4h0.8
		l0.2,1.2c0,0.1,0,0.2,0.1,0.2c0,0,0.3,0.1,0.4,0.1h0.2l-0.4,1.2h-0.6c-0.1,0-0.2,0-0.4,0c-0.2,0-0.3-0.1-0.4-0.2
		c-0.1-0.1-0.3-0.2-0.3-0.4l-0.2-1.2l-0.9,1.2c-0.3,0.4-0.6,0.7-1.3,0.7h-1.2l0.3-1h0.5c0.1,0,0.2-0.1,0.3-0.1
		c0.1,0,0.2-0.1,0.3-0.2L-496.7,404z"/>
	<path class="st4" d="M-514.9,401.4h4.4l-0.3,1h-1.8l-0.3,0.9h1.8l-0.3,1.1h-1.8l-0.4,1.5c-0.1,0.2,0.4,0.2,0.6,0.2l0.9-0.1
		l-0.4,1.2h-2c-0.2,0-0.3,0-0.5-0.1c-0.2,0-0.2-0.1-0.3-0.2c-0.1-0.1-0.2-0.2-0.1-0.5l0.6-1.9h-1l0.3-1.1h1l0.3-0.9h-1L-514.9,401.4
		z"/>
	<path class="st4" d="M-511.9,399.5h1.8l-0.3,1.1h-2.5l-0.3,0.2c-0.1,0.1-0.2,0.1-0.3,0.1c-0.1,0.1-0.4,0.2-0.8,0.2h-0.8l0.3-1.1
		h0.2c0.2,0,0.3,0,0.4-0.1c0.1-0.1,0.2-0.2,0.3-0.3l0.5-0.8h1.8L-511.9,399.5z"/>
	<path class="st3" d="M-508.5,401.3c0,0,0.5-0.4,1.3-0.6c0.2,0,1.4,0,1.4,0l0.2-0.6h-2.5L-508.5,401.3z M-506.1,401.8h-2.5l-0.2,0.5
		h2.2c0.3,0,0.3,0,0.3,0L-506.1,401.8 M-509.4,398.9h1.5l-0.2,0.8c0,0,0.5-0.4,0.8-0.5c0.3-0.1,1.1-0.2,1.1-0.2l2.5,0l-0.8,2.8
		c-0.1,0.5-0.3,0.8-0.4,0.9c-0.1,0.1-0.2,0.3-0.4,0.4c-0.2,0.1-0.4,0.2-0.6,0.2c-0.2,0-0.4,0-0.8,0h-2.4l-0.7,2.2
		c-0.1,0.2-0.1,0.3-0.1,0.4c0,0.1,0.1,0.1,0.2,0.1l1.1-0.1l-0.4,1.2h-1.2c-0.4,0-0.6,0-0.8,0c-0.2,0-0.4,0-0.5-0.1
		c-0.1-0.1-0.3-0.2-0.3-0.4c0-0.1,0.1-0.3,0.1-0.6L-509.4,398.9"/>
	<path class="st4" d="M-504.9,403.5l-0.1,0.7c-0.1,0.2-0.1,0.4-0.3,0.5c-0.2,0.1-0.4,0.3-0.8,0.3l-0.9,0l0,0.8c0,0.2,0,0.2,0.1,0.2
		c0,0,0.1,0.1,0.1,0.1l0.3,0l0.8,0l-0.3,1.1h-0.9c-0.7,0-1.1,0-1.3-0.1c-0.2-0.1-0.2-0.2-0.2-0.4l0.1-3h1.5l0,0.6h0.4
		c0.1,0,0.2,0,0.3,0c0,0,0.1-0.1,0.1-0.2l0.1-0.5H-504.9z"/>
	<path class="st4" d="M-526.1,388.5c-0.1,0.2-1,4.7-1,4.7c-0.2,0.9-0.4,1.5-0.9,1.9c-0.3,0.2-0.6,0.4-1,0.4c-0.6,0-1-0.3-1.1-0.9
		l0-0.2c0,0,0.2-1.2,0.2-1.2c0,0,1-4,1.2-4.5c0,0,0,0,0-0.1c-2,0-2.3,0-2.3,0c0,0-0.1,0.3-0.1,0.3l-1,4.5l-0.1,0.4l-0.2,1.3
		c0,0.4,0.1,0.7,0.2,0.9c0.5,0.8,1.8,0.9,2.5,0.9c1,0,1.9-0.2,2.5-0.6c1.1-0.6,1.3-1.6,1.6-2.5l0.1-0.4c0,0,1-4.2,1.2-4.7
		c0,0,0,0,0-0.1C-525.6,388.6-526,388.6-526.1,388.5z"/>
	<path class="st4" d="M-520.4,396.8c-0.7,0-0.9,0-1.7,0l0-0.1c0.1-0.3,0.1-0.6,0.2-0.9l0.1-0.4c0.1-0.7,0.3-1.4,0.3-1.6
		c0-0.1,0.1-0.5-0.3-0.5c-0.2,0-0.3,0.1-0.5,0.2c-0.1,0.3-0.3,1.3-0.4,1.8c-0.2,0.9-0.2,1-0.3,1.5l-0.1,0.1c-0.7,0-1,0-1.8,0l0-0.1
		c0.1-0.6,0.3-1.1,0.4-1.7c0.3-1.5,0.4-2.1,0.5-2.9l0.1,0c0.8-0.1,1-0.1,1.9-0.3l0.1,0.1l-0.1,0.5c0.1-0.1,0.3-0.2,0.4-0.3
		c0.4-0.2,0.9-0.3,1.1-0.3c0.4,0,0.8,0.1,1,0.5c0.2,0.4,0.1,0.9-0.2,1.8l-0.1,0.5C-520.2,395.8-520.2,396-520.4,396.8L-520.4,396.8z
		"/>
	<path class="st4" d="M-517.6,396.8c-0.4,0-0.7,0-0.9,0c-0.3,0-0.5,0-0.9,0l0,0l0,0c0.1-0.4,0.2-0.5,0.2-0.7
		c0.1-0.1,0.1-0.3,0.2-0.7c0.1-0.5,0.2-0.9,0.2-1.2c0.1-0.3,0.1-0.6,0.1-0.9l0,0l0,0c0.4-0.1,0.7-0.1,0.9-0.1c0.3,0,0.5-0.1,1-0.2
		l0,0l0,0c-0.1,0.3-0.2,0.7-0.2,1c-0.1,0.3-0.2,0.7-0.2,1c-0.2,0.7-0.2,1-0.3,1.1C-517.5,396.3-517.5,396.4-517.6,396.8
		L-517.6,396.8L-517.6,396.8z"/>
	<path class="st4" d="M-513.2,394.4c0,0.2-0.2,0.8-0.4,1.1c-0.1,0.2-0.3,0.3-0.5,0.3c-0.1,0-0.4,0-0.4-0.5c0-0.3,0-0.5,0.1-0.8
		c0.2-0.8,0.4-1.5,0.9-1.5C-513.1,393-513,393.6-513.2,394.4z M-511.4,394.4c0.2-1.1,0.1-1.6-0.2-1.9c-0.4-0.5-1-0.6-1.7-0.6
		c-0.4,0-1.3,0-2.1,0.7c-0.5,0.5-0.8,1.2-0.9,1.8c-0.1,0.7-0.3,1.8,0.8,2.3c0.3,0.1,0.8,0.2,1.1,0.2c0.8,0,1.6-0.2,2.2-0.9
		C-511.7,395.5-511.5,394.8-511.4,394.4"/>
	<path class="st4" d="M-494.5,396.9c-0.8,0-1.1,0-1.8,0l0-0.1c0.2-0.8,0.4-1.6,0.6-2.4c0.2-1,0.3-1.5,0.4-2.1l0.1-0.1
		c0.8-0.1,1.1-0.2,1.9-0.3l0,0.1c-0.2,0.7-0.3,1.3-0.5,2C-494.2,395.4-494.3,396.1-494.5,396.9L-494.5,396.9z"/>
	<path class="st4" d="M-495.7,394.5c0,0.2-0.2,0.8-0.4,1.1c-0.1,0.2-0.5,0.3-0.7,0.3c-0.1,0-0.4,0-0.4-0.5c0-0.2,0-0.5,0.1-0.8
		c0.2-0.8,0.4-1.5,0.9-1.5C-495.7,393.2-495.5,393.6-495.7,394.5z M-494.1,394.5c0.2-1.1-0.7-0.1-0.9-0.4c-0.2-0.5-0.1-1.6-1.1-2
		c-0.4-0.1-1.2,0-2,0.7c-0.5,0.5-0.8,1.1-0.9,1.8c-0.2,0.6-0.3,1.8,0.7,2.2c0.3,0.1,0.6,0.2,1,0.2c1.1-0.1,1.9-1.7,2.5-2.3
		C-494.2,394.1-494.1,394.8-494.1,394.5"/>
	<path class="st4" d="M-506.7,396.8c-0.7,0-0.9,0-1.7,0l0-0.1c0.1-0.3,0.1-0.6,0.2-0.9l0.1-0.4c0.2-0.7,0.3-1.4,0.3-1.6
		c0-0.1,0.1-0.5-0.3-0.5c-0.2,0-0.3,0.1-0.5,0.2c-0.1,0.3-0.3,1.3-0.4,1.8c-0.2,0.9-0.2,1-0.3,1.5l-0.1,0.1c-0.7,0-1,0-1.8,0l0-0.1
		c0.1-0.6,0.3-1.1,0.4-1.7c0.3-1.5,0.4-2.1,0.5-2.9l0.1,0c0.8-0.1,1-0.1,1.9-0.3l0.1,0.1l-0.1,0.5c0.1-0.1,0.3-0.2,0.4-0.3
		c0.4-0.2,0.9-0.3,1.1-0.3c0.4,0,0.8,0.1,1,0.5c0.2,0.4,0.1,0.9-0.2,1.8l-0.1,0.5C-506.4,395.8-506.5,396-506.7,396.8L-506.7,396.8z
		"/>
	<path class="st4" d="M-500.7,388.5c0,0-0.6,0-0.6,0c-1.5,0-2.1,0-2.3,0c0,0.1-0.1,0.3-0.1,0.3s-0.5,2.5-0.5,2.5
		c0,0-1.3,5.3-1.3,5.5c1.3,0,1.8,0,2.1,0c0.1-0.2,0.4-1.7,0.4-1.7c0,0,0.3-1.1,0.3-1.1c0,0,0.1-0.1,0.2-0.2h0.1c1.1,0,2.4,0,3.4-0.7
		c0.7-0.5,1.1-1.2,1.4-2.1c0.1-0.2,0.1-0.5,0.1-0.7c0-0.3-0.1-0.7-0.3-1C-498.5,388.5-499.5,388.5-500.7,388.5z M-499.9,391.1
		c-0.1,0.6-0.5,1-0.9,1.2c-0.4,0.2-0.8,0.2-1.3,0.2h-0.3l0-0.1c0,0,0.6-2.5,0.6-2.5l0-0.1l0-0.1l0.2,0c0,0,1.2,0.1,1.2,0.1
		C-500,390.1-499.8,390.5-499.9,391.1"/>
	<path class="st4" d="M-487.6,392L-487.6,392c-0.9,0.1-1.1,0.1-1.9,0.2l-0.1,0.1c0,0,0,0,0,0l0,0c-0.6,1.3-0.6,1.1-1,2.1
		c0,0,0-0.1,0-0.1l-0.1-2.3l-0.1-0.1c-0.9,0.2-0.9,0.2-1.7,0.3l-0.1,0.1c0,0,0,0.1,0,0.1l0,0c0.1,0.5,0.1,0.4,0.2,1.2
		c0,0.4,0.1,0.8,0.2,1.2c0.1,0.7,0.1,1,0.2,2c-0.6,0.9-0.7,1.3-1.2,2.1l0,0.1c0.8,0,1,0,1.6,0l0.1-0.1
		C-491.1,397.9-487.6,392-487.6,392z"/>
	<path class="st4" d="M-516.9,392.6c0.5-0.3,0.5-0.8,0.1-1c-0.4-0.2-1.1-0.2-1.5,0.2c-0.5,0.3-0.5,0.8-0.1,1
		C-518,393-517.3,392.9-516.9,392.6z"/>
	<path class="st4" d="M-491.6,399l-0.7,1.2c-0.2,0.4-0.6,0.7-1.2,0.7l-1.1,0l0.3-1h0.2c0.1,0,0.2,0,0.2,0c0.1,0,0.1-0.1,0.1-0.1
		l0.4-0.6H-491.6z"/>
</g>
</svg>
